<svg width="18" height="18" viewBox="0 0 18 18" fill="none" xmlns="http://www.w3.org/2000/svg">
<path d="M7.38672 4.69888V8.75006C7.39178 9.24583 7.59223 9.71966 7.94456 10.0684C8.29689 10.4172 8.7726 10.613 9.26856 10.613H12.4943V9.00001H9.26856C9.12699 9.00038 9.00961 8.89106 8.99967 8.75006V4.69888H7.38672Z" fill="#414042"/>
<path d="M8.99935 0.666656C7.68979 0.667594 6.39876 0.977362 5.23115 1.57045C4.06354 2.16352 3.05208 3.02363 2.279 4.08064V1.74201H0.666016V6.84948H5.77348V5.23669H3.44272C4.66021 3.44711 6.66508 2.35356 8.82908 2.2986C10.9927 2.24385 13.0505 3.23445 14.3571 4.9599C15.6636 6.68555 16.0591 8.93475 15.4197 11.0025C14.7801 13.0703 13.1838 14.7036 11.1311 15.3902C9.07846 16.0767 6.82085 15.7326 5.06602 14.4657C3.31119 13.1989 2.27362 11.1645 2.27904 9.00018V8.73129H0.666064V9.00018C0.666064 11.2104 1.54417 13.33 3.1069 14.8925C4.66962 16.4552 6.78922 17.3333 8.9992 17.3333C11.2092 17.3333 13.329 16.4552 14.8915 14.8925C16.4542 13.3298 17.3323 11.2102 17.3323 9.00018C17.3323 6.79019 16.4542 4.6704 14.8915 3.10787C13.3288 1.54515 11.2092 0.66704 8.9992 0.66704L8.99935 0.666656Z" fill="#414042"/>
</svg>
