<svg width="27" height="27" viewBox="0 0 27 27" fill="none" xmlns="http://www.w3.org/2000/svg">
<g id="Close" clip-path="url(#clip0_3144_5069)">
<path id="Vector" d="M20.5876 6.42332C20.1488 5.98457 19.4401 5.98457 19.0013 6.42332L13.5001 11.9133L7.99881 6.41207C7.56006 5.97332 6.85131 5.97332 6.41256 6.41207C5.97381 6.85082 5.97381 7.55957 6.41256 7.99832L11.9138 13.4996L6.41256 19.0008C5.97381 19.4396 5.97381 20.1483 6.41256 20.5871C6.85131 21.0258 7.56006 21.0258 7.99881 20.5871L13.5001 15.0858L19.0013 20.5871C19.4401 21.0258 20.1488 21.0258 20.5876 20.5871C21.0263 20.1483 21.0263 19.4396 20.5876 19.0008L15.0863 13.4996L20.5876 7.99832C21.0151 7.57082 21.0151 6.85082 20.5876 6.42332Z" fill="#414042"/>
</g>
<defs>
<clipPath id="clip0_3144_5069">
<rect width="27" height="27" fill="#414042"/>
</clipPath>
</defs>
</svg>
