<svg width="19" height="18" viewBox="0 0 19 18" fill="none" xmlns="http://www.w3.org/2000/svg">
<path d="M18.4241 16.6344V1.33478C18.4241 1.15772 18.3537 0.987797 18.2285 0.862452C18.1032 0.737111 17.9333 0.666748 17.756 0.666748H1.50138H1.50154C1.32432 0.666748 1.15439 0.737107 1.02905 0.862452C0.903859 0.987793 0.833496 1.15772 0.833496 1.33478V12.4681C0.833496 12.6453 0.903855 12.8153 1.02905 12.9404C1.15439 13.0658 1.32431 13.1361 1.50154 13.1361H13.0309C16.6136 16.6231 17.3506 17.3334 17.7693 17.3334C17.8787 17.325 17.9838 17.2881 18.0744 17.2266C18.1809 17.1688 18.2698 17.0832 18.3313 16.9788C18.3929 16.8746 18.4249 16.7555 18.424 16.6343L18.4241 16.6344ZM17.088 15.1714C16.164 14.3052 14.8014 12.996 13.7682 11.9895C13.6435 11.8682 13.4767 11.8004 13.3027 11.8002H2.16938V2.00287H17.088L17.088 15.1714Z" fill="#2B55CE"/>
<path d="M5.04199 4.71295H13.5033V6.04903H5.04199V4.71295Z" fill="#2B55CE"/>
<path d="M5.04199 7.83026H13.5033V9.16634H5.04199V7.83026Z" fill="#2B55CE"/>
</svg>
