<svg width="36" height="36" viewBox="0 0 36 36" fill="none" xmlns="http://www.w3.org/2000/svg">
<path fill-rule="evenodd" clip-rule="evenodd" d="M18.0002 22.5016C16.8062 22.5012 15.6612 22.0263 14.8172 21.1817C13.9733 20.337 13.4995 19.1919 13.4999 17.9978C13.5003 16.8037 13.9752 15.6587 14.8198 14.8148C15.6645 13.9708 16.8099 13.497 18.0037 13.4974C19.1978 13.4981 20.3428 13.9729 21.1868 14.8176C22.0307 15.6622 22.5045 16.8074 22.5039 18.0015C22.5021 19.1951 22.0271 20.3392 21.1827 21.1828C20.3382 22.0265 19.1939 22.5008 18.0003 22.5016H18.0002ZM18.0002 11.6229V11.6227C16.3093 11.6233 14.6877 12.2954 13.4921 13.4914C12.2965 14.6874 11.6251 16.3094 11.6253 18.0004C11.6255 19.6914 12.2972 21.3132 13.4929 22.5089C14.6887 23.7047 16.3105 24.3766 18.0015 24.3768C19.6925 24.3768 21.3145 23.7054 22.5105 22.5098C23.7064 21.3144 24.3785 19.6928 24.3792 18.0016C24.3777 16.3102 23.7052 14.6886 22.5092 13.4926C21.3132 12.2966 19.6916 11.6241 18.0002 11.6226L18.0002 11.6229ZM31.1254 19.6053V16.3946L28.6451 15.6746H28.6449C28.3378 15.5868 28.0969 15.3478 28.0066 15.0414C27.7994 14.3386 27.5181 13.6598 27.1669 13.0165C27.0142 12.7359 27.0149 12.3966 27.1691 12.1166L28.4155 9.8519L26.1452 7.58338L23.8836 8.83062H23.8834C23.6031 8.9848 23.2637 8.9848 22.9834 8.83062C22.3401 8.48097 21.6617 8.20028 20.9594 7.99335C20.6519 7.90275 20.4121 7.66121 20.3237 7.35309L19.6058 4.87543H16.3951L15.6774 7.35331C15.5887 7.66124 15.3491 7.90256 15.042 7.99379C14.3395 8.2003 13.6609 8.48098 13.0179 8.83107C12.7376 8.98525 12.3979 8.98525 12.1179 8.83107L9.85627 7.58382L7.58553 9.85235L8.83217 12.117C8.98635 12.3972 8.98635 12.7367 8.83217 13.017C8.48186 13.6607 8.20099 14.3399 7.99378 15.0429C7.9034 15.3494 7.66272 15.5883 7.35591 15.6763L4.87526 16.3964V19.6071L7.35591 20.3271V20.3269C7.66275 20.4149 7.90342 20.6539 7.99378 20.9603C8.20159 21.6624 8.48313 22.3405 8.83388 22.9834C8.98762 23.2636 8.98762 23.6029 8.83388 23.8834L7.58813 26.1437L9.85776 28.4164L12.1194 27.1691V27.1689C12.3996 27.0148 12.7393 27.0148 13.0194 27.1689C13.6624 27.5192 14.3412 27.7999 15.0438 28.0062C15.3508 28.0975 15.5904 28.3388 15.6791 28.6467L16.3968 31.1248H19.6075L20.3259 28.6467C20.4141 28.3385 20.6539 28.0968 20.9614 28.0062C21.6637 27.7995 22.3422 27.5188 22.9853 27.1689C23.2656 27.0148 23.6053 27.0148 23.8853 27.1689L26.1469 28.4162L28.4172 26.1435L27.1704 23.8834C27.016 23.6034 27.0147 23.2643 27.1669 22.9834C27.5177 22.3397 27.7988 21.6605 28.0053 20.9572C28.0959 20.6506 28.337 20.4117 28.6443 20.3239L31.1239 19.6038L31.1254 19.6053ZM32.3236 14.7917L29.6476 14.013C29.48 13.5232 29.2817 13.0445 29.054 12.5798L30.4003 10.141C30.498 9.96329 30.5357 9.75873 30.5071 9.55785C30.4786 9.35718 30.3854 9.171 30.242 9.02763L26.9753 5.75853V5.75875C26.8317 5.61516 26.6451 5.52219 26.444 5.49429C26.2429 5.4664 26.0379 5.50467 25.8606 5.60371L23.4197 6.94739C22.9554 6.71796 22.4767 6.51945 21.9862 6.35297L21.2106 3.67834C21.1545 3.48287 21.0363 3.31096 20.8739 3.18878C20.7115 3.06639 20.5136 3.00022 20.3103 3H15.6906C15.4874 3.00043 15.2897 3.0666 15.1273 3.18899C14.9652 3.31138 14.8469 3.48308 14.7907 3.67834L14.0152 6.35296C13.5256 6.51946 13.0474 6.71819 12.5837 6.94738L10.1426 5.60371C9.9653 5.50467 9.7603 5.46618 9.55898 5.49407C9.35767 5.52197 9.17105 5.61495 9.02725 5.75874L5.76053 9.02784V9.02763C5.61717 9.17099 5.52397 9.35696 5.49542 9.55784C5.46666 9.75873 5.50407 9.96329 5.60203 10.141L6.94659 12.5813C6.71911 13.0462 6.52103 13.5249 6.35366 14.0147L3.67705 14.7917C3.48157 14.8475 3.30966 14.9655 3.18748 15.1281C3.06531 15.2905 2.99936 15.4884 3 15.6917V20.3083C2.99936 20.5116 3.06531 20.7094 3.18748 20.8719C3.30965 21.0345 3.48157 21.1525 3.67705 21.2083L6.35366 21.987C6.52103 22.4768 6.71911 22.9555 6.94659 23.4202L5.60203 25.859C5.50407 26.0367 5.46666 26.2413 5.49542 26.4421C5.52396 26.643 5.61716 26.829 5.76053 26.9724L9.02725 30.2415V30.2412C9.17105 30.385 9.35767 30.478 9.55898 30.5059C9.7603 30.5338 9.96529 30.4953 10.1426 30.3963L12.5829 29.0526C13.0465 29.282 13.5248 29.4805 14.0145 29.647L14.79 32.3221V32.3219C14.8462 32.5171 14.9645 32.6888 15.1269 32.8112C15.2891 32.9334 15.4867 32.9996 15.69 33H20.3103C20.5136 32.9998 20.7112 32.9336 20.8736 32.8114C21.0358 32.6891 21.1541 32.5174 21.2103 32.3219L21.9858 29.6468L21.9855 29.647C22.476 29.4805 22.9547 29.282 23.419 29.0526L25.8599 30.3963C26.0372 30.4953 26.242 30.5336 26.4433 30.5057C26.6444 30.4778 26.831 30.3848 26.9746 30.2412L30.2414 26.9721V26.9724C30.3847 26.829 30.4779 26.6428 30.5065 26.4421C30.535 26.2413 30.4974 26.0367 30.3996 25.859L29.0546 23.4187C29.2823 22.9538 29.4806 22.475 29.6482 21.9853L32.3242 21.2066H32.3244C32.5197 21.1508 32.6916 21.0327 32.8137 20.8704C32.9361 20.7077 33.0019 20.5099 33.0012 20.3066V15.6917C33.0019 15.4884 32.9359 15.2903 32.8135 15.1279C32.6913 14.9655 32.5193 14.8475 32.3236 14.7917Z" fill="#414042"/>
</svg>
