<svg width="18" height="19" viewBox="0 0 18 19" fill="none" xmlns="http://www.w3.org/2000/svg">
<path d="M10.2852 6.28589C10.2852 6.99593 9.70959 7.57158 8.99956 7.57158C8.28952 7.57158 7.71387 6.99593 7.71387 6.28589C7.71387 5.57571 8.28952 5.00006 8.99956 5.00006C9.70959 5.00006 10.2852 5.57571 10.2852 6.28589Z" fill="#414042"/>
<path d="M8.81175 13.9225C8.91574 14.026 9.0839 14.026 9.18789 13.9225L10.8507 12.2597C10.9542 12.1558 10.9542 11.9877 10.8507 11.8837L9.18789 10.2209C9.0839 10.1172 8.91574 10.1172 8.81175 10.2209L7.14898 11.8837C7.04539 11.9877 7.04539 12.1558 7.14898 12.2597L8.81175 13.9225Z" fill="#414042"/>
<path d="M1.92881 5.32159H3.2145C3.39208 5.32159 3.53589 5.49917 3.53589 5.64298V6.92867C3.53589 7.10625 3.39194 7.25006 3.2145 7.25006H1.92881C1.75123 7.25006 1.60742 7.07248 1.60742 6.92867V5.64298C1.60742 5.46541 1.75137 5.32159 1.92881 5.32159Z" fill="#414042"/>
<path d="M0.642677 11.1074H4.49989C4.67746 11.1074 4.82127 11.2849 4.82127 11.4287V12.7144C4.82127 12.892 4.67733 13.0358 4.49989 13.0358H0.642677C0.465101 13.0358 0.321289 12.8583 0.321289 12.7144V11.4287C0.321289 11.2512 0.465235 11.1074 0.642677 11.1074Z" fill="#414042"/>
<path d="M0.321388 16.5715H4.82158C4.99915 16.5715 5.14297 16.7491 5.14297 16.8929V18.1786C5.14297 18.3562 4.99902 18.5 4.82158 18.5H0.321388C0.143812 18.5 0 18.3224 0 18.1786V16.8929C0 16.7153 0.143946 16.5715 0.321388 16.5715Z" fill="#414042"/>
<path d="M13.5001 11.1074H17.3573C17.5349 11.1074 17.6787 11.2849 17.6787 11.4287V12.7144C17.6787 12.892 17.5347 13.0358 17.3573 13.0358H13.5001C13.3225 13.0358 13.1787 12.8583 13.1787 12.7144V11.4287C13.1787 11.2512 13.3227 11.1074 13.5001 11.1074Z" fill="#414042"/>
<path d="M14.7862 5.32159H16.0719C16.2495 5.32159 16.3933 5.49917 16.3933 5.64298V6.92867C16.3933 7.10625 16.2494 7.25006 16.0719 7.25006H14.7862C14.6087 7.25006 14.4648 7.07248 14.4648 6.92867V5.64298C14.4648 5.46541 14.6088 5.32159 14.7862 5.32159Z" fill="#414042"/>
<path d="M13.1788 16.5715H17.679C17.8566 16.5715 18.0004 16.7491 18.0004 16.8929V18.1786C18.0004 18.3562 17.8564 18.5 17.679 18.5H13.1788C13.0012 18.5 12.8574 18.3224 12.8574 18.1786V16.8929C12.8574 16.7153 13.0014 16.5715 13.1788 16.5715Z" fill="#414042"/>
<path d="M7.07139 0.5H10.9286C11.1062 0.5 11.25 0.677576 11.25 0.821388V2.10708C11.25 2.28465 11.106 2.42847 10.9286 2.42847H7.07139C6.89381 2.42847 6.75 2.25089 6.75 2.10708V0.821388C6.75 0.643812 6.89395 0.5 7.07139 0.5Z" fill="#414042"/>
<path d="M2.25 13.6786H2.89291V15.9286H2.25V13.6786Z" fill="#414042"/>
<path d="M6.42818 12.0717C6.42778 11.9619 6.44742 11.853 6.48603 11.7502H5.46387V12.3931H6.48603C6.44742 12.2903 6.42778 12.1815 6.42818 12.0717Z" fill="#414042"/>
<path d="M15.1074 13.6786H15.7503V15.9286H15.1074V13.6786Z" fill="#414042"/>
<path d="M11.5715 12.0717C11.5719 12.1815 11.5523 12.2903 11.5137 12.3931H12.5358V11.7502H11.5137C11.5523 11.853 11.5719 11.9619 11.5715 12.0717Z" fill="#414042"/>
<path d="M5.78613 17.2145H12.2149V17.8575H5.78613V17.2145Z" fill="#414042"/>
<path d="M8.67871 8.18555V9.55802C8.88602 9.48094 9.1142 9.48094 9.32149 9.55802V8.18555C9.10893 8.22402 8.89127 8.22402 8.67871 8.18555Z" fill="#414042"/>
<path d="M9.32149 4.38623V3.07147H8.67871V4.38623C8.89127 4.34762 9.10893 4.34762 9.32149 4.38623Z" fill="#414042"/>
<path d="M7.07162 6.28588C7.07135 6.17799 7.08104 6.0705 7.10055 5.96436H4.17871V6.60727H7.10055C7.08104 6.50126 7.07135 6.39363 7.07162 6.28588Z" fill="#414042"/>
<path d="M2.25 7.89282H2.89291V10.4643H2.25V7.89282Z" fill="#414042"/>
<path d="M13.8212 5.96423H10.8994C10.938 6.17679 10.938 6.39459 10.8994 6.60715H13.8212V5.96423Z" fill="#414042"/>
<path d="M15.1074 7.89282H15.7503V10.4643H15.1074V7.89282Z" fill="#414042"/>
</svg>
