<svg width="12" height="12" viewBox="0 0 12 12" fill="none" xmlns="http://www.w3.org/2000/svg">
<path fill-rule="evenodd" clip-rule="evenodd" d="M4.20002 0.585331C4.20002 0.262036 3.93143 2.48818e-06 3.60005 2.48818e-06C3.26866 2.48818e-06 2.99997 0.262036 2.99997 0.585331V0.881583C2.70245 0.88609 2.43806 0.896478 2.20513 0.920194C1.77351 0.964292 1.38216 1.05925 1.03411 1.29424C0.796654 1.45456 0.590845 1.65537 0.426502 1.88702C0.185628 2.22647 0.0883036 2.60827 0.0432001 3.02935C0.00362268 3.39918 0.000307999 3.85055 7.13732e-06 4.39022V4.47998V4.54182V7.94386C-9.33298e-05 8.73645 -9.33115e-05 9.39007 0.0712238 9.90741C0.146059 10.4505 0.309285 10.9302 0.70293 11.3142C1.09657 11.6983 1.58828 11.8575 2.14496 11.9305C2.67522 12.0001 3.34521 12 4.15764 12H7.84229C8.65482 12 9.32479 12.0001 9.85505 11.9305C10.4117 11.8575 10.9034 11.6983 11.2971 11.3142C11.6907 10.9302 11.854 10.4505 11.9288 9.90741C12.0001 9.39009 12 8.73645 12 7.94386V4.54182V4.48831V4.39022C11.9997 3.85055 11.9964 3.39918 11.9568 3.02935C11.9117 2.60827 11.8144 2.22647 11.5735 1.88702C11.4092 1.65535 11.2033 1.45457 10.9659 1.29424C10.6178 1.05924 10.2265 0.964294 9.79487 0.920191C9.56194 0.896476 9.29755 0.886088 9.00004 0.88158V0.585328C9.00004 0.262033 8.73134 0 8.39996 0C8.06857 0 7.79998 0.262033 7.79998 0.585328V0.878043H4.19994L4.20002 0.585331ZM10.7999 4.39027C10.7995 3.84207 10.7957 3.4543 10.7633 3.1511C10.7283 2.82547 10.6657 2.66474 10.5867 2.55323C10.5045 2.43749 10.4017 2.33705 10.2829 2.2569C10.1687 2.17978 10.0039 2.11872 9.67012 2.08462C9.48359 2.06561 9.26581 2.05669 9.00002 2.05248V2.34148C9.00002 2.66478 8.73133 2.92691 8.39994 2.92691C8.06856 2.92691 7.79997 2.66478 7.79997 2.34148V2.04887H4.19992V2.34148C4.19992 2.66478 3.93133 2.92691 3.59995 2.92691C3.26856 2.92691 2.99987 2.66478 2.99987 2.34148V2.05248C2.73408 2.05669 2.51631 2.06561 2.32977 2.08462C1.996 2.11872 1.83114 2.17978 1.71694 2.2569C1.59821 2.33706 1.49535 2.4375 1.4132 2.55323C1.33415 2.66474 1.27147 2.82547 1.23661 3.1511C1.20417 3.4543 1.20035 3.84207 1.19995 4.39027H10.7999ZM1.1999 5.56102V7.90244C1.1999 8.74686 1.2012 9.32123 1.26047 9.75132C1.31742 10.1647 1.41787 10.356 1.55135 10.4863C1.68495 10.6166 1.88112 10.7146 2.30482 10.7702C2.74569 10.828 3.33451 10.8293 4.19996 10.8293H7.80001C8.66556 10.8293 9.2543 10.828 9.69515 10.7702C10.1189 10.7146 10.315 10.6166 10.4485 10.4863C10.5821 10.3561 10.6826 10.1647 10.7395 9.75132C10.7988 9.3212 10.8001 8.74686 10.8001 7.90244V5.56102H1.1999Z" fill="#667085"/>
</svg>
