<svg width="26" height="26" viewBox="0 0 26 26" fill="none" xmlns="http://www.w3.org/2000/svg">
<g id="Drag indicator" clip-path="url(#clip0_2008_25833)">
<path id="Vector" d="M15.1663 19.5007C15.1663 20.6923 14.1913 21.6673 12.9997 21.6673C11.808 21.6673 10.833 20.6923 10.833 19.5007C10.833 18.309 11.808 17.334 12.9997 17.334C14.1913 17.334 15.1663 18.309 15.1663 19.5007ZM12.9997 10.834C11.808 10.834 10.833 11.809 10.833 13.0007C10.833 14.1923 11.808 15.1673 12.9997 15.1673C14.1913 15.1673 15.1663 14.1923 15.1663 13.0007C15.1663 11.809 14.1913 10.834 12.9997 10.834ZM12.9997 4.33398C11.808 4.33398 10.833 5.30898 10.833 6.50065C10.833 7.69232 11.808 8.66732 12.9997 8.66732C14.1913 8.66732 15.1663 7.69232 15.1663 6.50065C15.1663 5.30898 14.1913 4.33398 12.9997 4.33398Z" fill="black"/>
</g>
<defs>
<clipPath id="clip0_2008_25833">
<rect width="26" height="26" fill="white"/>
</clipPath>
</defs>
</svg>
