<svg width="36" height="36" viewBox="0 0 36 36" fill="none" xmlns="http://www.w3.org/2000/svg">
<g clip-path="url(#clip0_707_1959)">
<path fill-rule="evenodd" clip-rule="evenodd" d="M18 8.57143C18 8.09828 17.616 7.71429 17.1429 7.71429C10.9886 7.71429 6 12.7029 6 18.8571C6 25.007 10.993 30 17.1429 30C23.2971 30 28.2857 25.0114 28.2857 18.8571C28.2857 18.384 27.9017 18 27.4286 18H18V8.57143ZM16.2857 9.46722V18.8571C16.2857 19.3302 16.6697 19.7142 17.1429 19.7142H26.5327C26.1 24.5194 22.061 28.2857 17.1429 28.2857C11.9393 28.2857 7.71429 24.0608 7.71429 18.8571C7.71429 13.9391 11.4806 9.89971 16.2857 9.46722ZM20.5714 6C20.0983 6 19.7143 6.38399 19.7143 6.85714V15.4286C19.7143 15.6566 19.8052 15.8751 19.9663 16.0362C20.1283 16.1965 20.3468 16.2865 20.5749 16.2857L29.1463 16.2505C29.6185 16.2488 30 15.8657 30 15.3934C30 10.2103 25.7761 6.00005 20.5715 6.00005L20.5714 6ZM21.4286 7.76136C25.0012 8.15492 27.8424 10.9825 28.2387 14.5396L21.4286 14.568V7.76136Z" fill="#414042" stroke="white" stroke-width="0.3"/>
</g>
<defs>
<clipPath id="clip0_707_1959">
<rect width="36" height="36" fill="white"/>
</clipPath>
</defs>
</svg>
