<svg width="24" height="24" viewBox="0 0 24 24" fill="none" xmlns="http://www.w3.org/2000/svg">
<path d="M5.10688 3.42672C4.95022 3.69497 4.97269 4.00799 5.1292 4.27636L5.15151 4.29867L10.565 11.878V20.441C10.565 20.6647 10.6992 20.8659 10.8782 20.9552C10.9453 21 11.0348 21 11.1242 21C11.2584 21 11.3703 20.9552 11.4822 20.8659L14.2336 18.563C14.3678 18.4512 14.4349 18.2948 14.4349 18.1382V11.878L19.8484 4.29865L19.8708 4.27635C20.0274 4.00811 20.0497 3.69509 19.8931 3.42671C19.7364 3.15847 19.468 3.00187 19.1549 3.00187H5.82285C5.53199 2.97957 5.24115 3.15845 5.10694 3.42671L5.10688 3.42672Z" stroke="#414042" stroke-width="1.5"/>
</svg>
