<svg width="20" height="20" viewBox="0 0 20 20" fill="none" xmlns="http://www.w3.org/2000/svg">
<g clip-path="url(#clip0_252_32394)">
<path d="M16.1771 2.00022C16.5715 2.00022 16.8917 2.2955 16.8917 2.65987V17.9795C16.8917 18.3071 16.6501 18.6174 16.2986 18.6633C15.87 18.7195 15.5026 18.4137 15.5026 18.0289V11.2083C15.5026 11.08 15.3897 10.9763 15.2508 10.9763H3.69471C3.43883 10.9763 3.20344 10.846 3.08218 10.6377C2.96131 10.4293 2.97453 10.1763 3.11682 9.97956L5.54538 6.61708C5.60198 6.53907 5.60198 6.43715 5.54538 6.35939L3.11682 2.99659C2.97493 2.79981 2.96157 2.54687 3.08218 2.3385C3.20344 2.13012 3.43882 2 3.69471 2L16.1771 2.00022ZM13.063 3.2358L12.8999 3.2546C12.71 3.28744 12.5512 3.41036 12.4646 3.57004L10.307 7.5544L9.30889 6.63324C9.16911 6.50409 8.96944 6.43513 8.7737 6.46186C7.88269 6.58197 7.67994 7.42607 8.16635 7.87507L9.92552 9.49909C10.0919 9.65254 10.3162 9.73701 10.5474 9.73701C10.5945 9.73701 10.6411 9.73371 10.6887 9.72651C10.9676 9.68464 11.2077 9.52143 11.3344 9.28792L13.9732 4.41606C14.2147 3.93854 13.93 3.36479 13.3582 3.2552C13.2616 3.23664 13.1615 3.24215 13.063 3.2358Z" fill="#414042"/>
</g>
<defs>
<clipPath id="clip0_252_32394">
<rect width="20" height="20" fill="white"/>
</clipPath>
</defs>
</svg>
