<svg width="18" height="18" viewBox="0 0 18 18" fill="none" xmlns="http://www.w3.org/2000/svg">
<path d="M10.7223 3.97968C10.2467 3.81175 9.96166 3.38172 9.63149 2.88373C9.28427 2.35978 8.89054 1.76608 8.19943 1.45543C6.74954 0.803734 5.07077 1.63434 3.84486 2.24083C3.70173 2.31175 3.56351 2.37995 3.43176 2.44299C2.6412 2.82134 2.28749 2.87445 2.16491 2.87858L1.66318 1.04026C1.58929 0.770146 1.31106 0.611116 1.04028 0.684629C0.770045 0.75839 0.61078 1.03702 0.684525 1.30739L2.81052 9.09885L2.98103 9.77069L3.01617 9.8531L4.95525 16.9594C5.017 17.1852 5.22136 17.3334 5.44431 17.3334C5.48862 17.3334 5.53358 17.3274 5.57814 17.3154C5.84838 17.2416 6.00765 16.9627 5.9339 16.6926L4.19002 10.3013C5.42973 9.44668 7.45344 8.27828 8.40041 8.27828C8.42147 8.27828 8.44226 8.2788 8.46229 8.28009C8.69545 8.29378 8.71935 8.32207 8.83134 8.71283C9.1247 9.73838 9.70315 10.2608 11.6784 9.69869C15.0306 8.74408 16.6133 4.27566 16.6792 4.08584L17.0162 3.11301L16.0395 3.43853C14.936 3.80656 12.0655 4.45323 10.7222 3.97928L10.7223 3.97968ZM3.77472 8.64774C3.76542 8.6564 3.75857 8.6666 3.75005 8.6759L2.65115 4.34812C3.46909 4.55984 4.18306 5.20574 4.44788 6.00754C4.74614 6.91139 4.46958 7.99726 3.77475 8.6478L3.77472 8.64774Z" fill="#414042"/>
</svg>
