<svg width="36" height="36" viewBox="0 0 36 36" fill="none" xmlns="http://www.w3.org/2000/svg">
<g clip-path="url(#clip0_258_23089)">
<path d="M21.0218 5.27194C20.8437 5.09783 20.6019 5 20.35 5H10.85C10.0942 5 9.36893 5.29349 8.83465 5.81582C8.30036 6.33815 8 7.04706 8 7.78567V28.2143C8 28.953 8.30027 29.662 8.83465 30.1842C9.36903 30.7064 10.0943 31 10.85 31H24.15C24.9058 31 25.6311 30.7065 26.1654 30.1842C26.6996 29.6619 27 28.9529 27 28.2143V11.5C27 11.2537 26.8999 11.0174 26.7218 10.8433L21.0218 5.27194ZM21.3 8.17005L23.7569 10.5715H22.25C21.7254 10.5715 21.3 10.1557 21.3 9.64293V8.17005ZM24.15 29.1431H10.85C10.3253 29.1431 9.89996 28.7273 9.89996 28.2145V7.78588C9.89996 7.2731 10.3253 6.85731 10.85 6.85731H19.4V9.64303C19.4 10.3817 19.7003 11.0907 20.2347 11.6129C20.769 12.1351 21.4943 12.4287 22.25 12.4287H25.1V28.2145C25.1 28.4607 24.9999 28.697 24.8218 28.8711C24.6436 29.0452 24.402 29.1431 24.15 29.1431Z" fill="white" stroke="#2B55CE" stroke-width="0.5"/>
<path d="M11.2861 13.7148H24.1433V15.8577H11.2861V13.7148Z" fill="white" stroke="#2B55CE" stroke-width="0.5"/>
<path d="M11.2861 18H24.1433V20.1429H11.2861V18Z" fill="white" stroke="#2B55CE" stroke-width="0.5"/>
<path d="M11.2861 22.2861H24.1433V24.429H11.2861V22.2861Z" fill="white" stroke="#2B55CE" stroke-width="0.5"/>
<path d="M11.2861 26.5723H24.1433V28.7151H11.2861V26.5723Z" fill="white" stroke="#2B55CE" stroke-width="0.5"/>
<path d="M11.2861 9.42871H17.7147V11.5716H11.2861V9.42871Z" fill="white" stroke="#2B55CE" stroke-width="0.5"/>
</g>
<defs>
<clipPath id="clip0_258_23089">
<rect width="36" height="36" fill="white"/>
</clipPath>
</defs>
</svg>
