<svg width="36" height="36" viewBox="0 0 36 36" fill="none" xmlns="http://www.w3.org/2000/svg">
<g clip-path="url(#clip0_642_17205)">
<path d="M18 3C9.72 3 3 9.72 3 18C3 26.28 9.72 33 18 33C26.28 33 33 26.28 33 18C33 9.72 26.28 3 18 3ZM18 30C11.385 30 6 24.615 6 18C6 11.385 11.385 6 18 6C24.615 6 30 11.385 30 18C30 24.615 24.615 30 18 30ZM16.5 24H19.5V27H16.5V24ZM18.915 9.06C15.825 8.61 13.095 10.515 12.27 13.245C12 14.115 12.66 15 13.575 15H13.875C14.49 15 14.985 14.565 15.195 13.995C15.675 12.66 17.1 11.745 18.645 12.075C20.07 12.375 21.12 13.77 21 15.225C20.85 17.235 18.57 17.67 17.325 19.545C17.325 19.56 17.31 19.56 17.31 19.575C17.295 19.605 17.28 19.62 17.265 19.65C17.13 19.875 16.995 20.13 16.89 20.4C16.875 20.445 16.845 20.475 16.83 20.52C16.815 20.55 16.815 20.58 16.8 20.625C16.62 21.135 16.5 21.75 16.5 22.5H19.5C19.5 21.87 19.665 21.345 19.92 20.895C19.95 20.85 19.965 20.805 19.995 20.76C20.115 20.55 20.265 20.355 20.415 20.175C20.43 20.16 20.445 20.13 20.46 20.115C20.61 19.935 20.775 19.77 20.955 19.605C22.395 18.24 24.345 17.13 23.94 14.265C23.58 11.655 21.525 9.45 18.915 9.06Z" fill="#414042" stroke="white"/>
</g>
<defs>
<clipPath id="clip0_642_17205">
<rect width="36" height="36" fill="white"/>
</clipPath>
</defs>
</svg>
