<svg width="18" height="18" viewBox="0 0 18 18" fill="none" xmlns="http://www.w3.org/2000/svg">
<path d="M7.38672 4.69891V8.75009C7.39178 9.24586 7.59223 9.71969 7.94456 10.0685C8.29689 10.4172 8.7726 10.613 9.26856 10.613H12.4943V9.00004H9.26856C9.12699 9.00041 9.00961 8.89109 8.99967 8.75009V4.69891H7.38672Z" fill="#414042"/>
<path d="M8.99984 0.666687C7.69028 0.667625 6.39925 0.977393 5.23164 1.57048C4.06403 2.16355 3.05256 3.02366 2.27948 4.08067V1.74204H0.666504V6.84951H5.77397V5.23672H3.44321C4.6607 3.44714 6.66557 2.35359 8.82957 2.29863C10.9932 2.24388 13.051 3.23449 14.3575 4.95994C15.6641 6.68558 16.0596 8.93478 15.4202 11.0025C14.7806 13.0703 13.1843 14.7036 11.1316 15.3902C9.07894 16.0767 6.82134 15.7326 5.06651 14.4658C3.31168 13.199 2.27411 11.1645 2.27953 9.00021V8.73132H0.666552V9.00021C0.666552 11.2104 1.54466 13.33 3.10738 14.8925C4.67011 16.4552 6.7897 17.3334 8.99969 17.3334C11.2097 17.3334 13.3295 16.4552 14.892 14.8925C16.4547 13.3298 17.3328 11.2102 17.3328 9.00021C17.3328 6.79022 16.4547 4.67043 14.892 3.1079C13.3293 1.54518 11.2097 0.667071 8.99969 0.667071L8.99984 0.666687Z" fill="#414042"/>
</svg>
