<svg width="36" height="36" viewBox="0 0 36 36" fill="none" xmlns="http://www.w3.org/2000/svg">
<g id="Home" clip-path="url(#clip0_530_23721)">
<path id="Vector" d="M14.9999 28.5001V21.0001H20.9999V28.5001C20.9999 29.3251 21.6749 30.0001 22.4999 30.0001H26.9999C27.8249 30.0001 28.4999 29.3251 28.4999 28.5001V18.0001H31.0499C31.7399 18.0001 32.0699 17.1451 31.5449 16.6951L19.0049 5.40008C18.4349 4.89008 17.5649 4.89008 16.9949 5.40008L4.4549 16.6951C3.9449 17.1451 4.2599 18.0001 4.9499 18.0001H7.4999V28.5001C7.4999 29.3251 8.1749 30.0001 8.9999 30.0001H13.4999C14.3249 30.0001 14.9999 29.3251 14.9999 28.5001Z" fill="white"/>
</g>
<defs>
<clipPath id="clip0_530_23721">
<rect width="36" height="36" fill="white"/>
</clipPath>
</defs>
</svg>
