<svg width="36" height="36" viewBox="0 0 36 36" fill="none" xmlns="http://www.w3.org/2000/svg">
<g id="Help outline" clip-path="url(#clip0_2553_27548)">
<g id="Group 1000001044">
<path id="Vector" d="M28.1445 19.4319L28.9302 18.2461L31.0675 19.6624L30.2818 20.8482L28.1445 19.4319Z" fill="#2B55CE"/>
<path id="Vector_2" d="M28.3154 9.69993L30.4579 8.27148L31.2504 9.46007L29.1079 10.8885L28.3154 9.69993Z" fill="#2B55CE"/>
<path id="Vector_3" d="M30.1426 13.8672H32.9998V15.2956H30.1426V13.8672Z" fill="#2B55CE"/>
<path id="Vector_4" d="M4.74316 9.46007L5.53564 8.27148L7.67811 9.69993L6.88563 10.8885L4.74316 9.46007Z" fill="#2B55CE"/>
<path id="Vector_5" d="M4.74609 19.7019L6.88857 18.2734L7.68104 19.462L5.53857 20.8905L4.74609 19.7019Z" fill="#2B55CE"/>
<path id="Vector_6" d="M3 13.8672H5.8572V15.2956H3V13.8672Z" fill="#2B55CE"/>
<path id="Vector_7" d="M25.7108 12.2522C25.9863 11.3838 25.8722 10.4391 25.3984 9.66108C24.9245 8.88334 24.1373 8.34845 23.2394 8.19501C23.0354 7.48678 22.5805 6.87715 21.96 6.47958C21.3394 6.08198 20.5955 5.92379 19.8669 6.0344C19.1384 6.14501 18.4748 6.51695 18.0002 7.08069C17.5261 6.51818 16.8637 6.14696 16.1362 6.03612C15.409 5.92526 14.6661 6.08221 14.0458 6.47806C13.4258 6.87392 12.9704 7.4815 12.7643 8.18782C11.8668 8.34153 11.0793 8.87614 10.6054 9.65388C10.1316 10.4319 10.0177 11.3768 10.293 12.245C9.7397 12.892 9.43555 13.7151 9.43555 14.5663C9.43555 15.4175 9.73972 16.2409 10.293 16.8879C10.0177 17.756 10.1316 18.701 10.6054 19.4787C11.0792 20.2567 11.8667 20.7914 12.7643 20.9448C12.926 21.5258 13.2566 22.0454 13.7145 22.4378V25.295C13.7145 25.8632 13.9402 26.4083 14.342 26.8102C14.7438 27.212 15.2889 27.4377 15.8572 27.4377V28.8664C15.8572 29.2451 16.0079 29.6086 16.2757 29.8763C16.5435 30.1444 16.907 30.2949 17.2859 30.2949H18.7143C19.0933 30.2949 19.4567 30.1444 19.7245 29.8763C19.9923 29.6085 20.1431 29.2451 20.1431 28.8664V27.4377C20.7113 27.4377 21.2564 27.212 21.6582 26.8102C22.0601 26.4083 22.2858 25.8632 22.2858 25.295V22.4378C22.7382 22.0539 23.0685 21.5462 23.2359 20.9769C24.1335 20.8235 24.921 20.2889 25.3948 19.5109C25.8687 18.7331 25.9825 17.7882 25.7072 16.92C26.2605 16.273 26.5647 15.4497 26.5647 14.5985C26.5647 13.7472 26.2605 12.9241 25.7072 12.2772L25.7108 12.2522ZM18.7146 28.8663H17.2862V27.4376H18.7146V28.8663ZM20.8576 25.2949C20.8576 25.4843 20.7823 25.6659 20.6483 25.7999C20.5143 25.9339 20.3327 26.0091 20.1433 26.0091H15.8574C15.4631 26.0091 15.1432 25.6893 15.1432 25.2949V23.1019C15.6674 23.1983 16.2075 23.1547 16.7092 22.9753C17.211 22.796 17.6564 22.4873 18.0004 22.0805C18.3432 22.4893 18.7882 22.7999 19.2902 22.9813C19.7919 23.1624 20.3328 23.2078 20.8576 23.1126L20.8576 25.2949ZM23.8398 16.5519L23.9255 16.6376H23.9253C24.3207 17.0253 24.5048 17.5798 24.4201 18.1269C24.3354 18.6741 23.9923 19.1468 23.4983 19.397C23.0043 19.6468 22.4201 19.6433 21.9291 19.3877V20.102C21.9291 20.6762 21.6227 21.2068 21.1254 21.4938C20.6281 21.7808 20.0156 21.7808 19.5183 21.4938C19.0211 21.2068 18.7146 20.6762 18.7146 20.102V19.2233C18.7146 18.829 19.0345 18.5091 19.4289 18.5091H20.5397C20.7188 18.5091 20.8905 18.4381 21.017 18.3115C21.1436 18.1847 21.2146 18.0131 21.2146 17.8342V17.7592C21.2156 17.5796 21.1448 17.407 21.0183 17.2794C20.8915 17.1521 20.7193 17.0806 20.5397 17.0806H19.4289C18.8606 17.0806 18.3155 17.3063 17.9137 17.7082C17.5118 18.11 17.2862 18.6551 17.2862 19.2233V20.1162C17.2862 20.6904 16.9797 21.221 16.4825 21.508C15.9852 21.7953 15.3726 21.7953 14.8754 21.508C14.3781 21.221 14.0717 20.6904 14.0717 20.1162V19.402C13.6711 19.6157 13.2017 19.6601 12.7681 19.5255C12.3346 19.391 11.9728 19.0883 11.7633 18.6855C11.5541 18.2827 11.5147 17.8128 11.654 17.3806C11.862 17.4229 12.074 17.4421 12.286 17.4376H13.3968C13.576 17.4376 13.7476 17.3666 13.8742 17.2401C14.0007 17.1135 14.0717 16.9419 14.0717 16.7628V16.6878C14.0727 16.5082 14.002 16.3355 13.8754 16.2082C13.7486 16.0807 13.5765 16.0092 13.3968 16.0092H12.286C11.9073 16.0092 11.5439 15.8587 11.2761 15.5906C11.008 15.3228 10.8575 14.9594 10.8575 14.5807C10.8575 14.1604 10.9811 13.7494 11.213 13.3989C11.4447 13.0483 11.7746 12.7738 12.1612 12.6091L12.0755 12.5234C11.6801 12.1358 11.496 11.5813 11.5807 11.0341C11.6654 10.4871 12.0085 10.0143 12.5025 9.76438C12.9965 9.51426 13.5807 9.51775 14.0717 9.77335V9.05913C14.0717 8.4849 14.3781 7.95454 14.8754 7.66729C15.3726 7.38031 15.9852 7.38031 16.4824 7.66729C16.9797 7.95453 17.2861 8.4849 17.2861 9.05913V9.58054C17.2861 9.77013 17.2109 9.95174 17.0769 10.0858C16.9428 10.2195 16.7612 10.2948 16.5719 10.2948H15.4611C15.2819 10.2948 15.1103 10.366 14.9837 10.4926C14.8572 10.6191 14.7862 10.7908 14.7862 10.9699V11.0449C14.7852 11.2245 14.8559 11.3971 14.9825 11.5245C15.1093 11.6518 15.2814 11.7235 15.4611 11.7235H16.5719C16.7567 11.7158 16.9369 11.783 17.0714 11.9101C17.2059 12.0374 17.2834 12.2133 17.2861 12.3984V14.9736C17.2851 15.1532 17.3559 15.3258 17.4824 15.4531C17.6092 15.5804 17.7814 15.6519 17.961 15.6519H18.036C18.2156 15.6529 18.3882 15.5822 18.5158 15.4556C18.6431 15.3288 18.7146 15.1567 18.7146 14.977V9.04491C18.7146 8.47069 19.021 7.94007 19.5183 7.65308C20.0156 7.36609 20.6281 7.36609 21.1254 7.65308C21.6226 7.94007 21.9291 8.47068 21.9291 9.04491V9.75913C22.3296 9.54563 22.799 9.50104 23.2327 9.63557C23.6662 9.77035 24.0279 10.0728 24.2374 10.4756C24.4467 10.8784 24.486 11.3483 24.3468 11.7805C24.1388 11.7382 23.9268 11.719 23.7147 11.7235H22.6039C22.4248 11.7235 22.2531 11.7945 22.1266 11.921C22 12.0478 21.929 12.2195 21.929 12.3984V12.4733C21.928 12.653 21.9988 12.8256 22.1253 12.9532C22.2521 13.0805 22.4243 13.152 22.6039 13.152H23.7147C24.0934 13.152 24.4569 13.3024 24.7247 13.5705C24.9927 13.8383 25.1432 14.2018 25.1432 14.5807C25.1432 15.0007 25.0197 15.4117 24.7877 15.7622C24.556 16.1128 24.2262 16.3873 23.8396 16.552L23.8398 16.5519Z" fill="#2B55CE"/>
</g>
</g>
<defs>
<clipPath id="clip0_2553_27548">
<rect width="36" height="36" fill="white"/>
</clipPath>
</defs>
</svg>
