<svg width="18" height="25" viewBox="0 0 18 25" fill="none" xmlns="http://www.w3.org/2000/svg">
<path d="M16.7108 6.25221C16.9863 5.38378 16.8722 4.43907 16.3984 3.66108C15.9245 2.88334 15.1373 2.34845 14.2394 2.19501C14.0354 1.48678 13.5805 0.877155 12.96 0.479579C12.3394 0.0819778 11.5955 -0.0762106 10.8669 0.034395C10.1384 0.145007 9.47478 0.516945 9.00016 1.08069C8.52608 0.518176 7.86368 0.146959 7.1362 0.036117C6.40903 -0.0747438 5.66611 0.0822051 5.04583 0.478061C4.42576 0.873915 3.97039 1.4815 3.76433 2.18782C2.86675 2.34153 2.07926 2.87614 1.60541 3.65388C1.13157 4.43188 1.01773 5.37684 1.29301 6.24502C0.739705 6.89202 0.435547 7.7151 0.435547 8.56631C0.435547 9.41752 0.739724 10.2409 1.29301 10.8879C1.01773 11.756 1.13158 12.701 1.60541 13.4787C2.07924 14.2567 2.86669 14.7914 3.76433 14.9448C3.92601 15.5258 4.2566 16.0454 4.71446 16.4378V19.295C4.71446 19.8632 4.94016 20.4083 5.34199 20.8102C5.74382 21.212 6.28893 21.4377 6.85717 21.4377V22.8664C6.85717 23.2451 7.00789 23.6086 7.27569 23.8763C7.5435 24.1444 7.90697 24.2949 8.2859 24.2949H9.71434C10.0933 24.2949 10.4567 24.1444 10.7245 23.8763C10.9923 23.6085 11.1431 23.2451 11.1431 22.8664V21.4377C11.7113 21.4377 12.2564 21.212 12.6582 20.8102C13.0601 20.4083 13.2858 19.8632 13.2858 19.295V16.4378C13.7382 16.0539 14.0685 15.5462 14.2359 14.9769C15.1335 14.8235 15.921 14.2889 16.3948 13.5109C16.8687 12.7331 16.9825 11.7882 16.7072 10.92C17.2605 10.273 17.5647 9.44967 17.5647 8.59845C17.5647 7.74724 17.2605 6.9241 16.7072 6.27716L16.7108 6.25221ZM9.7146 22.8663H8.28616V21.4376H9.7146V22.8663ZM11.8576 19.2949C11.8576 19.4843 11.7823 19.6659 11.6483 19.7999C11.5143 19.9339 11.3327 20.0091 11.1433 20.0091H6.85745C6.46309 20.0091 6.14323 19.6893 6.14323 19.2949V17.1019C6.66739 17.1983 7.20751 17.1547 7.70923 16.9753C8.21097 16.796 8.65642 16.4873 9.00043 16.0805C9.34322 16.4893 9.78818 16.7999 10.2902 16.9813C10.7919 17.1624 11.3328 17.2078 11.8576 17.1126L11.8576 19.2949ZM14.8398 10.5519L14.9255 10.6376H14.9253C15.3207 11.0253 15.5048 11.5798 15.4201 12.1269C15.3354 12.6741 14.9923 13.1468 14.4983 13.397C14.0043 13.6468 13.4201 13.6433 12.9291 13.3877V14.102C12.9291 14.6762 12.6227 15.2068 12.1254 15.4938C11.6281 15.7808 11.0156 15.7808 10.5183 15.4938C10.0211 15.2068 9.71464 14.6762 9.71464 14.102V13.2233C9.71464 12.829 10.0345 12.5091 10.4289 12.5091H11.5397C11.7188 12.5091 11.8905 12.4381 12.017 12.3115C12.1436 12.1847 12.2146 12.0131 12.2146 11.8342V11.7592C12.2156 11.5796 12.1448 11.407 12.0183 11.2794C11.8915 11.1521 11.7193 11.0806 11.5397 11.0806H10.4289C9.86062 11.0806 9.31554 11.3063 8.91369 11.7082C8.51184 12.11 8.28616 12.6551 8.28616 13.2233V14.1162C8.28616 14.6904 7.97973 15.221 7.48246 15.508C6.98521 15.7953 6.37264 15.7953 5.87538 15.508C5.37813 15.221 5.07169 14.6904 5.07169 14.1162V13.402C4.6711 13.6157 4.20173 13.6601 3.76805 13.5255C3.33458 13.391 2.97284 13.0883 2.76334 12.6855C2.55408 12.2827 2.51471 11.8128 2.65397 11.3806C2.86199 11.4229 3.07399 11.4421 3.286 11.4376H4.39684C4.57596 11.4376 4.7476 11.3666 4.87416 11.2401C5.00072 11.1135 5.07172 10.9419 5.07172 10.7628V10.6878C5.07272 10.5082 5.00196 10.3355 4.87541 10.2082C4.74861 10.0807 4.57646 10.0092 4.39685 10.0092H3.28601C2.90734 10.0092 2.54385 9.85869 2.27606 9.59063C2.00801 9.32283 1.85753 8.95936 1.85753 8.58069C1.85753 8.16042 1.9811 7.74937 2.21303 7.39886C2.44471 7.04835 2.77455 6.77381 3.16118 6.60913L3.07548 6.52343C2.68012 6.1358 2.49602 5.58128 2.58072 5.03415C2.66542 4.48708 3.00846 4.01425 3.50247 3.76438C3.99648 3.51426 4.58065 3.51775 5.07166 3.77335V3.05913C5.07166 2.4849 5.37808 1.95454 5.87536 1.66729C6.37261 1.38031 6.98518 1.38031 7.48243 1.66729C7.97968 1.95453 8.28613 2.4849 8.28613 3.05913V3.58054C8.28613 3.77013 8.2109 3.95174 8.07687 4.08577C7.94284 4.21955 7.76123 4.29478 7.5719 4.29478H6.46106C6.28194 4.29478 6.11029 4.36603 5.98374 4.49258C5.85718 4.61914 5.78618 4.79078 5.78618 4.9699V5.04489C5.78518 5.22451 5.85594 5.39715 5.98249 5.52445C6.10929 5.65175 6.28144 5.7235 6.46105 5.7235H7.57189C7.75674 5.71578 7.93686 5.78304 8.07138 5.91009C8.20591 6.0374 8.28338 6.21327 8.28612 6.39837V8.97356C8.28513 9.15317 8.35588 9.32581 8.48243 9.45312C8.60924 9.58042 8.78138 9.65192 8.961 9.65192H9.03598C9.2156 9.65291 9.38824 9.58216 9.51579 9.45561C9.64309 9.32881 9.71459 9.15666 9.71459 8.97705V3.04491C9.71459 2.47069 10.021 1.94007 10.5183 1.65308C11.0156 1.36609 11.6281 1.36609 12.1254 1.65308C12.6226 1.94007 12.9291 2.47068 12.9291 3.04491V3.75913C13.3296 3.54563 13.799 3.50104 14.2327 3.63557C14.6662 3.77035 15.0279 4.07278 15.2374 4.47562C15.4467 4.87845 15.486 5.34832 15.3468 5.78053C15.1388 5.73818 14.9268 5.71899 14.7147 5.72348H13.6039C13.4248 5.72348 13.2531 5.79448 13.1266 5.92103C13 6.04784 12.929 6.21948 12.929 6.39836V6.47334C12.928 6.65296 12.9988 6.8256 13.1253 6.95315C13.2521 7.08045 13.4243 7.15195 13.6039 7.15195H14.7147C15.0934 7.15195 15.4569 7.30242 15.7247 7.57048C15.9927 7.83828 16.1432 8.20175 16.1432 8.58068C16.1432 9.0007 16.0197 9.41174 15.7877 9.76225C15.556 10.1128 15.2262 10.3873 14.8396 10.552L14.8398 10.5519Z" fill="white"/>
</svg>
