<svg width="36" height="36" viewBox="0 0 36 36" fill="none" xmlns="http://www.w3.org/2000/svg">
<g clip-path="url(#clip0_665_17294)">
<path d="M30.8824 16.353H28.7647V15.6471H27.353V16.353H25.9412V15.6471H24.5294V16.353H23.1177V15.6471H21.7059V16.353H20.2941V15.6471H18.8824V16.353H16.7647C16.2032 16.353 15.6643 16.5761 15.2673 16.9731C14.8703 17.3702 14.6471 17.9091 14.6471 18.4706V29.7647C14.6471 30.3263 14.8702 30.8652 15.2673 31.2622C15.6643 31.6592 16.2032 31.8824 16.7647 31.8824H30.8824C31.4439 31.8824 31.9828 31.6592 32.3798 31.2622C32.7768 30.8651 33 30.3262 33 29.7647V18.4706C33 17.909 32.7769 17.3701 32.3798 16.9731C31.9828 16.5762 31.4439 16.353 30.8824 16.353ZM16.7647 17.7647H18.8824V18.4706H20.2941V17.7647H21.7059V18.4706H23.1177V17.7647H24.5294V18.4706H25.9412V17.7647H27.353V18.4706H28.7647V17.7647H30.8824C31.0696 17.7647 31.2492 17.8391 31.3816 17.9715C31.5139 18.1038 31.5883 18.2834 31.5883 18.4706V19.8824H16.0588V18.4706C16.0588 18.0808 16.3749 17.7647 16.7647 17.7647ZM27.353 21.2942V23.4118H24.5294V21.2942H27.353ZM23.1177 23.4118H20.2941V21.2942H23.1177V23.4118ZM18.8824 23.4118H16.0588V21.2942H18.8824V23.4118ZM18.8824 24.8236V26.9412H16.0588V24.8236H18.8824ZM20.2941 24.8236H23.1177V26.9412H20.2941V24.8236ZM23.1177 28.353V30.4707H20.2941V28.353H23.1177ZM24.5294 28.353H27.353V30.4707H24.5294V28.353ZM24.5294 26.9412V24.8236H27.353V26.9412H24.5294ZM28.7647 24.8236H31.5883V26.9412H28.7647V24.8236ZM28.7647 23.4118V21.2942H31.5883V23.4118H28.7647ZM16.0588 29.7648V28.353H18.8824V30.4707H16.7647C16.3749 30.4707 16.0588 30.1546 16.0588 29.7648ZM30.8824 30.4707H28.7647V28.353H31.5883V29.7648C31.5883 29.952 31.5139 30.1316 31.3816 30.2639C31.2492 30.3963 31.0696 30.4707 30.8824 30.4707Z" fill="white"/>
<path d="M12.1764 15.2941C12.6128 15.2922 13.038 15.1558 13.3937 14.903C13.7495 14.6503 14.0186 14.2939 14.1642 13.8824H16.4117V12.4706H14.1642C13.9506 11.8728 13.4801 11.4023 12.8822 11.1886V8.23529H11.4705V11.1886C10.838 11.4114 10.3486 11.9213 10.1523 12.5626C9.95593 13.2038 10.0757 13.9003 10.475 14.4392C10.8742 14.978 11.5057 15.2953 12.1764 15.2941ZM12.1764 12.4706C12.4619 12.4706 12.7193 12.6426 12.8284 12.9064C12.9377 13.1701 12.8775 13.4736 12.6755 13.6756C12.4735 13.8776 12.1701 13.9378 11.9063 13.8285C11.6426 13.7194 11.4705 13.462 11.4705 13.1765C11.4705 12.7866 11.7866 12.4706 12.1764 12.4706Z" fill="white"/>
<path fill-rule="evenodd" clip-rule="evenodd" d="M18.6653 6.68768C20.3862 8.40859 21.353 10.7428 21.353 13.1765C21.3529 13.2944 21.3505 13.4121 21.3458 13.5294H18.5295V12.4706H19.9054C19.7642 10.9041 19.1481 9.41763 18.14 8.21069L18.1397 8.21038L17.1679 9.18224L16.1699 8.18424L17.1417 7.21238C15.9348 6.2046 14.4486 5.58884 12.8825 5.44767V6.82354H11.4707V5.44767C9.90419 5.58917 8.41837 6.20494 7.21143 7.21302L8.18232 8.18521L7.18432 9.18321L6.21246 8.21135C5.20468 9.41829 4.58893 10.9044 4.44775 12.4706H5.82362V13.8824H4.44775C4.58925 15.4489 5.20502 16.9347 6.2131 18.1416L7.18529 17.1698L8.18329 18.1687L7.21143 19.1406C8.41837 20.1484 9.90452 20.7641 11.4707 20.9053V19.5294H12.5294V22.3458C12.4121 22.3505 12.2944 22.3529 12.1765 22.353C9.74277 22.353 7.40859 21.3862 5.68768 19.6653C3.96678 17.9444 3 15.6102 3 13.1765C3 10.7428 3.96678 8.40859 5.68768 6.68768C7.40859 4.96678 9.74277 4 12.1765 4C14.6102 4 16.9444 4.96678 18.6653 6.68768Z" fill="white"/>
</g>
<defs>
<clipPath id="clip0_665_17294">
<rect width="36" height="36" fill="white"/>
</clipPath>
</defs>
</svg>
