<svg width="30" height="30" viewBox="0 0 30 30" fill="none" xmlns="http://www.w3.org/2000/svg">
<g id="Group 1000001056">
<g id="Help outline" clip-path="url(#clip0_665_17263)">
<g id="Group 1000001044">
<path id="Vector" d="M28.1441 19.4321L28.9298 18.2462L31.0671 19.6625L30.2813 20.8483L28.1441 19.4321Z" fill="white"/>
<path id="Vector_2" d="M28.3157 9.69993L30.4581 8.27148L31.2506 9.46007L29.1081 10.8885L28.3157 9.69993Z" fill="white"/>
<path id="Vector_3" d="M30.1428 13.8663H33V15.2948H30.1428V13.8663Z" fill="white"/>
<path id="Vector_4" d="M4.74359 9.46074L5.53606 8.27216L7.67854 9.7006L6.88606 10.8892L4.74359 9.46074Z" fill="white"/>
<path id="Vector_5" d="M4.74615 19.7025L6.88863 18.274L7.6811 19.4626L5.53863 20.891L4.74615 19.7025Z" fill="white"/>
<path id="Vector_6" d="M3 13.8663H5.8572V15.2948H3V13.8663Z" fill="white"/>
<path id="Vector_7" d="M25.7104 12.2522C25.9859 11.3838 25.8718 10.4391 25.398 9.66108C24.9242 8.88334 24.137 8.34845 23.2391 8.19501C23.035 7.48678 22.5801 6.87715 21.9596 6.47958C21.339 6.08198 20.5951 5.92379 19.8665 6.0344C19.1381 6.14501 18.4744 6.51695 17.9998 7.08069C17.5257 6.51818 16.8633 6.14696 16.1358 6.03612C15.4087 5.92526 14.6657 6.08221 14.0455 6.47806C13.4254 6.87392 12.97 7.4815 12.764 8.18782C11.8664 8.34153 11.0789 8.87614 10.605 9.65388C10.1312 10.4319 10.0174 11.3768 10.2926 12.245C9.73934 12.892 9.43518 13.7151 9.43518 14.5663C9.43518 15.4175 9.73936 16.2409 10.2926 16.8879C10.0174 17.756 10.1312 18.701 10.605 19.4787C11.0789 20.2567 11.8663 20.7914 12.764 20.9448C12.9256 21.5258 13.2562 22.0454 13.7141 22.4378V25.295C13.7141 25.8632 13.9398 26.4083 14.3416 26.8102C14.7435 27.212 15.2886 27.4377 15.8568 27.4377V28.8664C15.8568 29.2451 16.0075 29.6086 16.2753 29.8763C16.5431 30.1444 16.9066 30.2949 17.2855 30.2949H18.714C19.0929 30.2949 19.4564 30.1444 19.7242 29.8763C19.992 29.6085 20.1427 29.2451 20.1427 28.8664V27.4377C20.7109 27.4377 21.256 27.212 21.6579 26.8102C22.0597 26.4083 22.2854 25.8632 22.2854 25.295V22.4378C22.7378 22.0539 23.0681 21.5462 23.2355 20.9769C24.1331 20.8235 24.9206 20.2889 25.3945 19.5109C25.8683 18.7331 25.9821 17.7882 25.7069 16.92C26.2602 16.273 26.5643 15.4497 26.5643 14.5985C26.5643 13.7472 26.2601 12.9241 25.7069 12.2772L25.7104 12.2522ZM18.7142 28.8663H17.2858V27.4376H18.7142V28.8663ZM20.8572 25.2949C20.8572 25.4843 20.782 25.6659 20.648 25.7999C20.5139 25.9339 20.3323 26.0091 20.143 26.0091H15.8571C15.4627 26.0091 15.1429 25.6893 15.1429 25.2949V23.1019C15.667 23.1983 16.2071 23.1547 16.7089 22.9753C17.2106 22.796 17.6561 22.4873 18.0001 22.0805C18.3429 22.4893 18.7878 22.7999 19.2898 22.9813C19.7915 23.1624 20.3324 23.2078 20.8573 23.1126L20.8572 25.2949ZM23.8395 16.5519L23.9252 16.6376H23.9249C24.3203 17.0253 24.5044 17.5798 24.4197 18.1269C24.335 18.6741 23.9919 19.1468 23.4979 19.397C23.0039 19.6468 22.4198 19.6433 21.9287 19.3877V20.102C21.9287 20.6762 21.6223 21.2068 21.1251 21.4938C20.6278 21.7808 20.0152 21.7808 19.518 21.4938C19.0207 21.2068 18.7143 20.6762 18.7143 20.102V19.2233C18.7143 18.829 19.0341 18.5091 19.4285 18.5091H20.5393C20.7185 18.5091 20.8901 18.4381 21.0167 18.3115C21.1432 18.1847 21.2142 18.0131 21.2142 17.8342V17.7592C21.2152 17.5796 21.1445 17.407 21.0179 17.2794C20.8911 17.1521 20.719 17.0806 20.5393 17.0806H19.4285C18.8603 17.0806 18.3152 17.3063 17.9133 17.7082C17.5115 18.11 17.2858 18.6551 17.2858 19.2233V20.1162C17.2858 20.6904 16.9794 21.221 16.4821 21.508C15.9848 21.7953 15.3723 21.7953 14.875 21.508C14.3778 21.221 14.0713 20.6904 14.0713 20.1162V19.402C13.6707 19.6157 13.2014 19.6601 12.7677 19.5255C12.3342 19.391 11.9725 19.0883 11.763 18.6855C11.5537 18.2827 11.5143 17.8128 11.6536 17.3806C11.8616 17.4229 12.0736 17.4421 12.2856 17.4376H13.3965C13.5756 17.4376 13.7472 17.3666 13.8738 17.2401C14.0004 17.1135 14.0714 16.9419 14.0714 16.7628V16.6878C14.0723 16.5082 14.0016 16.3355 13.875 16.2082C13.7482 16.0807 13.5761 16.0092 13.3965 16.0092H12.2856C11.907 16.0092 11.5435 15.8587 11.2757 15.5906C11.0076 15.3228 10.8572 14.9594 10.8572 14.5807C10.8572 14.1604 10.9807 13.7494 11.2127 13.3989C11.4443 13.0483 11.7742 12.7738 12.1608 12.6091L12.0751 12.5234C11.6798 12.1358 11.4957 11.5813 11.5804 11.0341C11.6651 10.4871 12.0081 10.0143 12.5021 9.76438C12.9961 9.51426 13.5803 9.51775 14.0713 9.77335V9.05913C14.0713 8.4849 14.3777 7.95454 14.875 7.66729C15.3722 7.38031 15.9848 7.38031 16.4821 7.66729C16.9793 7.95453 17.2858 8.4849 17.2858 9.05913V9.58054C17.2858 9.77013 17.2105 9.95174 17.0765 10.0858C16.9425 10.2195 16.7609 10.2948 16.5715 10.2948H15.4607C15.2816 10.2948 15.1099 10.366 14.9834 10.4926C14.8568 10.6191 14.7858 10.7908 14.7858 10.9699V11.0449C14.7848 11.2245 14.8556 11.3971 14.9821 11.5245C15.1089 11.6518 15.2811 11.7235 15.4607 11.7235H16.5715C16.7564 11.7158 16.9365 11.783 17.071 11.9101C17.2055 12.0374 17.283 12.2133 17.2858 12.3984V14.9736C17.2848 15.1532 17.3555 15.3258 17.4821 15.4531C17.6089 15.5804 17.781 15.6519 17.9606 15.6519H18.0356C18.2152 15.6529 18.3879 15.5822 18.5154 15.4556C18.6427 15.3288 18.7142 15.1567 18.7142 14.977V9.04491C18.7142 8.47069 19.0206 7.94007 19.5179 7.65308C20.0152 7.36609 20.6277 7.36609 21.125 7.65308C21.6223 7.94007 21.9287 8.47068 21.9287 9.04491V9.75913C22.3293 9.54563 22.7987 9.50104 23.2323 9.63557C23.6658 9.77035 24.0275 10.0728 24.237 10.4756C24.4463 10.8784 24.4857 11.3483 24.3464 11.7805C24.1384 11.7382 23.9264 11.719 23.7144 11.7235H22.6035C22.4244 11.7235 22.2528 11.7945 22.1262 11.921C21.9997 12.0478 21.9287 12.2195 21.9287 12.3984V12.4733C21.9277 12.653 21.9984 12.8256 22.125 12.9532C22.2518 13.0805 22.4239 13.152 22.6035 13.152H23.7144C24.093 13.152 24.4565 13.3024 24.7243 13.5705C24.9924 13.8383 25.1428 14.2018 25.1428 14.5807C25.1428 15.0007 25.0193 15.4117 24.7874 15.7622C24.5557 16.1128 24.2258 16.3873 23.8392 16.552L23.8395 16.5519Z" fill="#4263c1"/>
</g>
</g>
</g>
<defs>
<clipPath id="clip0_665_17263">
<rect width="30" height="30" fill="white"/>
</clipPath>
</defs>
</svg>
