<svg width="20" height="20" viewBox="0 0 20 20" fill="none" xmlns="http://www.w3.org/2000/svg">
<path d="M6.66536 9.79175V8.54175H13.332V9.79175H6.66536ZM6.66536 6.45841V5.20841H13.332V6.45841H6.66536ZM4.58203 11.8751H11.2487C11.6158 11.8751 11.9576 11.9584 12.274 12.1251C12.5905 12.2917 12.8598 12.514 13.082 12.7917L15.4154 15.8334V2.91675H4.58203V11.8751ZM4.58203 17.0834H14.7904L12.1029 13.5626C11.9978 13.4253 11.8708 13.3181 11.722 13.2409C11.5731 13.1637 11.4154 13.1251 11.2487 13.1251H4.58203V17.0834ZM15.4154 18.3334H4.58203C4.2487 18.3334 3.95703 18.2084 3.70703 17.9584C3.45703 17.7084 3.33203 17.4167 3.33203 17.0834V2.91675C3.33203 2.58341 3.45703 2.29175 3.70703 2.04175C3.95703 1.79175 4.2487 1.66675 4.58203 1.66675H15.4154C15.7487 1.66675 16.0404 1.79175 16.2904 2.04175C16.5404 2.29175 16.6654 2.58341 16.6654 2.91675V17.0834C16.6654 17.4167 16.5404 17.7084 16.2904 17.9584C16.0404 18.2084 15.7487 18.3334 15.4154 18.3334Z" fill="#414042"/>
</svg>
