<svg width="24" height="24" viewBox="0 0 24 24" fill="none" xmlns="http://www.w3.org/2000/svg">
<path d="M10.5714 22H4.14286C3.57445 22 3.02951 21.7742 2.62755 21.3724C2.22576 20.9705 2 20.4256 2 19.8571V4.14286C2 3.57445 2.22576 3.02951 2.62755 2.62755C3.0295 2.22576 3.57445 2 4.14286 2H10.5714C11.1398 2 11.6848 2.22576 12.0867 2.62755C12.4885 3.0295 12.7143 3.57445 12.7143 4.14286V5.57143C12.7143 5.82669 12.5781 6.06249 12.3571 6.19004C12.1362 6.31759 11.8638 6.31759 11.6429 6.19004C11.4219 6.06249 11.2857 5.82668 11.2857 5.57143V4.14286C11.2857 3.95344 11.2105 3.77168 11.0765 3.63776C10.9426 3.50383 10.7608 3.42857 10.5714 3.42857H4.14286C3.95344 3.42857 3.77168 3.50383 3.63775 3.63776C3.50383 3.77168 3.42857 3.95344 3.42857 4.14286V19.8571C3.42857 20.0466 3.50383 20.2283 3.63775 20.3622C3.77168 20.4962 3.95344 20.5714 4.14286 20.5714H10.5714C10.7608 20.5714 10.9426 20.4962 11.0765 20.3622C11.2105 20.2283 11.2857 20.0466 11.2857 19.8571V18.4286C11.2857 18.1733 11.4219 17.9375 11.6429 17.81C11.8638 17.6824 12.1362 17.6824 12.3571 17.81C12.5781 17.9375 12.7143 18.1733 12.7143 18.4286V19.8571C12.7143 20.4256 12.4885 20.9705 12.0867 21.3724C11.6848 21.7742 11.1398 22 10.5714 22Z" fill="#414042" stroke="#414042" stroke-width="0.5"/>
<path d="M17.7145 16.2859C17.5246 16.287 17.3422 16.2124 17.2074 16.0788C17.0721 15.9447 16.9961 15.7621 16.9961 15.5716C16.9961 15.381 17.0721 15.1985 17.2074 15.0644L20.2788 12.0001L17.2074 8.9359C17.0262 8.75462 16.9554 8.4906 17.0218 8.24313C17.0881 7.99552 17.2813 7.80227 17.5289 7.73594C17.7764 7.66962 18.0404 7.74041 18.2217 7.92153L21.7932 11.493C21.9284 11.627 22.0044 11.8096 22.0044 12.0001C22.0044 12.1907 21.9284 12.3732 21.7932 12.5073L18.2217 16.0788C18.0868 16.2124 17.9044 16.287 17.7145 16.2859Z" fill="#414042" stroke="#414042" stroke-width="0.5"/>
<path d="M21.286 12.7143H5.5717C5.31644 12.7143 5.08064 12.5781 4.95309 12.3571C4.82553 12.1362 4.82553 11.8638 4.95309 11.6428C5.08064 11.4219 5.31644 11.2857 5.5717 11.2857H21.286C21.5412 11.2857 21.7771 11.4219 21.9046 11.6428C22.0322 11.8638 22.0322 12.1362 21.9046 12.3571C21.7771 12.5781 21.5412 12.7143 21.286 12.7143Z" fill="#414042" stroke="#414042" stroke-width="0.5"/>
</svg>
