<svg width="24" height="24" viewBox="0 0 24 24" fill="none" xmlns="http://www.w3.org/2000/svg">
<g id="bell">
<path id="Vector" fill-rule="evenodd" clip-rule="evenodd" d="M7.00002 3.9999C6.44771 3.9999 6.00007 4.44771 6.00007 5.00002V18.8258L11.3495 14.2405C11.724 13.9197 12.2765 13.9197 12.651 14.2405L18.0004 18.8258V5.00002C18.0004 4.44771 17.5528 3.9999 17.0005 3.9999H7.00002ZM4 5.00002C4 3.34315 5.34315 2 7.00002 2H17.0004C18.6572 2 20.0004 3.34315 20.0004 5.00002V21C20.0004 21.3905 19.773 21.7453 19.4183 21.9085C19.0634 22.0717 18.646 22.0133 18.3495 21.7593L12.0002 16.3169L5.65087 21.7593C5.35438 22.0133 4.93703 22.0717 4.58226 21.9085C4.22735 21.7453 4 21.3905 4 21V5.00002Z" fill="white" stroke="#2B55CE" stroke-width="0.2"/>
</g>
</svg>
