<svg width="26" height="26" viewBox="0 0 26 26" fill="none" xmlns="http://www.w3.org/2000/svg">
<path fill-rule="evenodd" clip-rule="evenodd" d="M13 3.57143C13 3.09828 12.616 2.71429 12.1429 2.71429C5.98857 2.71429 1 7.70286 1 13.8571C1 20.007 5.99298 25 12.1429 25C18.2971 25 23.2857 20.0114 23.2857 13.8571C23.2857 13.384 22.9017 13 22.4286 13H13V3.57143ZM11.2857 4.46722V13.8571C11.2857 14.3302 11.6697 14.7142 12.1429 14.7142H21.5327C21.1 19.5194 17.061 23.2857 12.1429 23.2857C6.93927 23.2857 2.71429 19.0608 2.71429 13.8571C2.71429 8.93905 6.48057 4.89971 11.2857 4.46722ZM15.5714 1C15.0983 1 14.7143 1.38399 14.7143 1.85714V10.4286C14.7143 10.6566 14.8052 10.8751 14.9663 11.0362C15.1283 11.1965 15.3468 11.2865 15.5749 11.2857L24.1463 11.2505C24.6185 11.2488 25 10.8657 25 10.3934C25 5.21034 20.7761 1.00005 15.5715 1.00005L15.5714 1ZM16.4286 2.76136C20.0012 3.15492 22.8424 5.98255 23.2387 9.53964L16.4286 9.56796V2.76136Z" fill="#2B55CE" stroke="#2B55CE" stroke-width="0.3"/>
</svg>
