<svg width="36" height="36" viewBox="0 0 36 36" fill="none" xmlns="http://www.w3.org/2000/svg">
<g clip-path="url(#clip0_642_17226)">
<path d="M32.5476 15.0015L29.3233 14.679C29.1338 14.6633 28.9708 14.5383 28.9068 14.3591C28.7358 13.8458 28.5282 13.3454 28.2859 12.8617C28.2035 12.6896 28.2296 12.4849 28.3528 12.3392L30.4027 9.83093C30.5658 9.63228 30.5515 9.34235 30.3698 9.16047L26.8371 5.62526C26.6552 5.44358 26.3653 5.42929 26.1666 5.59223L23.6584 7.64206C23.5124 7.76504 23.3082 7.79138 23.1359 7.70925C22.6522 7.46685 22.1518 7.25928 21.6384 7.0881C21.4592 7.02426 21.3342 6.86133 21.3186 6.67183L20.9961 3.44997C20.9704 3.19441 20.7553 3.00001 20.4986 3.00001H15.499C15.2412 2.99867 15.0247 3.19352 14.999 3.44997L14.679 6.67429C14.6633 6.86378 14.5383 7.02672 14.3591 7.09078C13.8458 7.26175 13.3454 7.46932 12.8617 7.7117C12.6896 7.79428 12.4849 7.76794 12.3392 7.64474L9.83092 5.5949C9.63227 5.43174 9.34234 5.44603 9.16046 5.62771L5.62525 9.16046C5.44357 9.34237 5.42928 9.6323 5.59222 9.83092L7.64206 12.3392C7.76526 12.4849 7.7916 12.6896 7.70924 12.8617C7.46685 13.3453 7.25928 13.8458 7.08809 14.3591C7.02425 14.5383 6.86132 14.6633 6.67182 14.679L3.44996 15.0015C3.1944 15.0271 3 15.2423 3 15.499V20.4986C3 20.7553 3.1944 20.9704 3.44996 20.9961L6.67428 21.3186C6.86378 21.3342 7.02671 21.4592 7.09077 21.6384C7.26174 22.1516 7.46931 22.6517 7.71169 23.1354C7.79405 23.3077 7.76771 23.5124 7.64473 23.6584L5.59489 26.1666C5.43173 26.3653 5.44602 26.6552 5.6277 26.8371L9.16291 30.3723C9.34482 30.554 9.63475 30.5683 9.83337 30.4053L12.3416 28.3555C12.4876 28.2323 12.692 28.2059 12.8641 28.2883C13.3478 28.5307 13.8482 28.7383 14.3616 28.9094C14.5408 28.9733 14.666 29.1362 14.6816 29.3257L15.0041 32.55H15.0039C15.0298 32.8065 15.2463 33.0013 15.5039 33H20.4986C20.7552 33 20.9704 32.8056 20.9961 32.55L21.3186 29.3257C21.3342 29.1362 21.4592 28.9733 21.6384 28.9094C22.1518 28.7383 22.6522 28.5307 23.1359 28.2883C23.3082 28.2062 23.5124 28.2325 23.6584 28.3555L26.1666 30.4053C26.3653 30.5683 26.6552 30.554 26.8371 30.3723L30.3723 26.8371C30.554 26.6552 30.5683 26.3652 30.4053 26.1666L28.3555 23.6584C28.2323 23.5126 28.2059 23.3079 28.2883 23.1359C28.5307 22.6522 28.7383 22.1518 28.9095 21.6384C28.9733 21.4592 29.1362 21.3342 29.3257 21.3186L32.55 20.9961C32.8045 20.9691 32.9978 20.7546 32.9975 20.4986V15.499C32.9975 15.2423 32.8031 15.0271 32.5476 15.0015ZM31.9976 20.0486L29.2244 20.3261C28.9394 20.3531 28.6682 20.462 28.4437 20.6392C28.2189 20.8166 28.0504 21.055 27.958 21.326C27.802 21.7945 27.6125 22.251 27.3915 22.6924C27.2652 22.9493 27.2156 23.2372 27.2489 23.5216C27.2824 23.806 27.3971 24.0747 27.5795 24.2954L29.3449 26.4482L26.4481 29.345L24.2898 27.5797V27.5795C24.069 27.3972 23.8001 27.2824 23.5157 27.2492C23.2314 27.2159 22.9432 27.2655 22.6863 27.392C22.245 27.6128 21.7886 27.802 21.3206 27.9581C21.0496 28.0505 20.8112 28.219 20.6338 28.4435C20.4566 28.668 20.3476 28.939 20.3206 29.2238L20.0486 31.9977H15.9538L15.6764 29.2245C15.6494 28.9395 15.5407 28.6683 15.3632 28.4437C15.1858 28.219 14.9474 28.0505 14.6764 27.9581C14.2084 27.802 13.7519 27.6128 13.3107 27.392C13.0536 27.2657 12.7656 27.2162 12.4813 27.2494C12.1969 27.2827 11.928 27.3972 11.7072 27.5795L9.54933 29.345L6.65247 26.4481L8.41776 24.2898H8.41798C8.60033 24.0691 8.71506 23.8001 8.74831 23.5158C8.78157 23.2314 8.73202 22.9433 8.60546 22.6864C8.38472 22.2451 8.19545 21.7887 8.03944 21.3206C7.94704 21.0497 7.77852 20.8113 7.55399 20.6338C7.32945 20.4566 7.05849 20.3477 6.77371 20.3207L3.99981 20.0486V15.9539L6.77302 15.6764C7.05804 15.6494 7.32923 15.5407 7.55376 15.3633C7.77852 15.1858 7.94703 14.9475 8.03943 14.6765C8.19545 14.2084 8.38472 13.752 8.60546 13.3107C8.73201 13.0538 8.78178 12.7657 8.74853 12.4813C8.71527 12.1968 8.60055 11.928 8.41797 11.7073L6.65251 9.54939L9.54937 6.65253L11.7077 8.41782V8.41804C11.9284 8.6004 12.1973 8.71512 12.4817 8.74837C12.7661 8.78163 13.0542 8.73208 13.3111 8.60553C13.7524 8.38478 14.2088 8.19551 14.6768 8.0395C14.9478 7.9471 15.1862 7.77859 15.3637 7.55405C15.5409 7.32951 15.6498 7.05855 15.6768 6.77377L15.9513 3.99987H20.0486L20.326 6.77308C20.353 7.05811 20.4619 7.32929 20.6391 7.55382C20.8166 7.77858 21.0549 7.94709 21.3259 8.0395C21.7942 8.19551 22.2507 8.38478 22.6919 8.60552C22.9488 8.73207 23.2367 8.78184 23.5213 8.74859C23.8057 8.71533 24.0746 8.60061 24.2954 8.41803L26.4481 6.65257L29.345 9.54943L27.5797 11.7077H27.5794C27.3969 11.9285 27.2822 12.1972 27.2489 12.4818C27.2156 12.7661 27.2654 13.0543 27.392 13.3112C27.6127 13.7525 27.802 14.2089 27.958 14.6769C28.0504 14.9479 28.2189 15.1862 28.4434 15.3637C28.668 15.5409 28.9389 15.6499 29.2237 15.6769L31.9976 15.9514L31.9976 20.0486Z" fill="#414042"/>
<path d="M19.8523 10.1459C19.7585 10.0521 19.6313 9.99945 19.4987 9.99945H14.4991C14.1014 9.99945 13.7197 10.1575 13.4385 10.4387C13.1573 10.7199 12.9993 11.1016 12.9993 11.4993V22.4984C12.9993 22.8962 13.1573 23.2779 13.4385 23.559C13.7197 23.8402 14.1014 23.9983 14.4991 23.9983H21.4986C21.8963 23.9983 22.278 23.8403 22.5592 23.559C22.8404 23.2778 22.9984 22.8961 22.9984 22.4984V13.4991C22.9984 13.3666 22.9457 13.2393 22.852 13.1456L19.8523 10.1459ZM19.9987 11.7063L21.2917 12.9992H20.4986C20.2226 12.9992 19.9987 12.7754 19.9987 12.4993V11.7063ZM21.4986 22.9985H14.4991C14.223 22.9985 13.9992 22.7746 13.9992 22.4986V11.4994C13.9992 11.2233 14.223 10.9995 14.4991 10.9995H18.9988V12.4993C18.9988 12.8971 19.1568 13.2788 19.438 13.5599C19.7192 13.8411 20.1009 13.9992 20.4986 13.9992H21.9985V22.4985C21.9985 22.6311 21.9458 22.7583 21.8521 22.8521C21.7583 22.9458 21.6311 22.9985 21.4986 22.9985Z" fill="#414042"/>
<path d="M14.9994 14.9992H20.9989V15.9992H14.9994V14.9992Z" fill="#414042"/>
<path d="M14.9994 16.9991H20.9989V17.999H14.9994V16.9991Z" fill="#414042"/>
<path d="M14.9994 18.999H20.9989V19.9989H14.9994V18.999Z" fill="#414042"/>
<path d="M14.9994 20.9988H20.9989V21.9987H14.9994V20.9988Z" fill="#414042"/>
<path d="M14.9994 12.9995H17.9992V13.9994H14.9994V12.9995Z" fill="#414042"/>
</g>
<defs>
<clipPath id="clip0_642_17226">
<rect width="36" height="36" fill="white"/>
</clipPath>
</defs>
</svg>
