<svg width="36" height="36" viewBox="0 0 36 36" fill="none" xmlns="http://www.w3.org/2000/svg">
<g clip-path="url(#clip0_642_17237)">
<path d="M26.7285 11.2009L24.7939 11.0074C24.6802 10.998 24.5825 10.923 24.544 10.8155C24.4415 10.5075 24.3169 10.2072 24.1715 9.91702C24.1221 9.81377 24.1377 9.69097 24.2117 9.60352L25.4416 8.09856C25.5395 7.97938 25.5309 7.80542 25.4219 7.69629L23.3022 5.57516C23.1931 5.46615 23.0191 5.45758 22.8999 5.55534L21.395 6.78524C21.3074 6.85903 21.1849 6.87484 21.0815 6.82555C20.7913 6.68012 20.491 6.55557 20.183 6.45286C20.0755 6.41456 20.0005 6.3168 19.9911 6.2031L19.7976 4.26998C19.7822 4.11665 19.6531 4 19.4991 4H16.4993C16.3447 3.9992 16.2148 4.11611 16.1994 4.26998L16.0073 6.20458C15.9979 6.31827 15.923 6.41604 15.8154 6.45447C15.5074 6.55705 15.2072 6.6816 14.917 6.82702C14.8137 6.87657 14.6909 6.86077 14.6035 6.78685L13.0985 5.55694C12.9793 5.45905 12.8054 5.46762 12.6962 5.57663L10.5751 7.69628C10.4661 7.80543 10.4575 7.97939 10.5553 8.09856L11.7852 9.60352C11.8591 9.69097 11.8749 9.81377 11.8255 9.91702C11.6801 10.2072 11.5555 10.5075 11.4528 10.8155C11.4145 10.923 11.3167 10.998 11.203 11.0074L9.26992 11.2009C9.11658 11.2163 8.99994 11.3454 8.99994 11.4994V14.4992C8.99994 14.6532 9.11658 14.7823 9.26992 14.7977L11.2045 14.9912C11.3182 15.0006 11.416 15.0755 11.4544 15.1831C11.557 15.491 11.6815 15.7911 11.827 16.0813C11.8764 16.1847 11.8606 16.3075 11.7868 16.395L10.5569 17.9C10.459 18.0192 10.4676 18.1931 10.5766 18.3023L12.6977 20.4234C12.8068 20.5324 12.9808 20.541 13.1 20.4432L14.6049 19.2133C14.6925 19.1394 14.8152 19.1236 14.9184 19.173C15.2086 19.3184 15.5089 19.443 15.8169 19.5457C15.9244 19.584 15.9995 19.6818 16.0089 19.7955L16.2024 21.7301H16.2023C16.2178 21.8839 16.3477 22.0008 16.5023 22H19.4991C19.6531 22 19.7822 21.8834 19.7976 21.7301L19.9911 19.7955C20.0005 19.6818 20.0755 19.584 20.183 19.5457C20.491 19.443 20.7913 19.3184 21.0815 19.173C21.1849 19.1237 21.3074 19.1395 21.395 19.2133L22.8999 20.4432C23.0191 20.541 23.1931 20.5324 23.3022 20.4234L25.4233 18.3023C25.5324 18.1931 25.5409 18.0192 25.4432 17.9L24.2133 16.395C24.1393 16.3076 24.1235 16.1848 24.1729 16.0815C24.3184 15.7913 24.4429 15.4911 24.5456 15.1831C24.5839 15.0755 24.6817 15.0006 24.7954 14.9912L26.73 14.7977C26.8827 14.7815 26.9986 14.6528 26.9985 14.4992V11.4994C26.9985 11.3454 26.8819 11.2163 26.7285 11.2009ZM26.3985 14.2292L24.7346 14.3957C24.5636 14.4119 24.4009 14.4772 24.2662 14.5835C24.1313 14.69 24.0302 14.833 23.9748 14.9956C23.8812 15.2767 23.7675 15.5506 23.6349 15.8155C23.5591 15.9696 23.5294 16.1424 23.5493 16.313C23.5694 16.4836 23.6382 16.6448 23.7476 16.7773L24.8069 18.0689L23.0688 19.807L21.7738 18.7479V18.7477C21.6414 18.6383 21.48 18.5695 21.3094 18.5495C21.1388 18.5296 20.9659 18.5593 20.8117 18.6352C20.547 18.7677 20.2731 18.8813 19.9923 18.9749C19.8297 19.0303 19.6867 19.1314 19.5802 19.2661C19.4739 19.4009 19.4085 19.5634 19.3923 19.7343L19.2291 21.3986H16.7722L16.6058 19.7347C16.5896 19.5637 16.5243 19.401 16.4179 19.2663C16.3114 19.1314 16.1684 19.0303 16.0058 18.9749C15.725 18.8813 15.4511 18.7677 15.1864 18.6353C15.0321 18.5595 14.8593 18.5297 14.6887 18.5497C14.5181 18.5696 14.3567 18.6383 14.2243 18.7477L12.9295 19.807L11.1914 18.0689L12.2506 16.7739H12.2507C12.3601 16.6415 12.429 16.4801 12.4489 16.3095C12.4689 16.1389 12.4392 15.966 12.3632 15.8118C12.2308 15.5471 12.1172 15.2732 12.0236 14.9924C11.9682 14.8298 11.8671 14.6868 11.7323 14.5803C11.5976 14.474 11.435 14.4086 11.2642 14.3924L9.59983 14.2292V11.7723L11.2638 11.6059C11.4348 11.5897 11.5975 11.5244 11.7322 11.418C11.8671 11.3115 11.9682 11.1685 12.0236 11.0059C12.1172 10.7251 12.2308 10.4512 12.3632 10.1865C12.4392 10.0323 12.469 9.85943 12.4491 9.68881C12.4291 9.51806 12.3603 9.35682 12.2507 9.22438L11.1914 7.92964L12.9296 6.19152L14.2245 7.2507V7.25083C14.357 7.36024 14.5184 7.42908 14.689 7.44903C14.8596 7.46898 15.0325 7.43925 15.1866 7.36332C15.4514 7.23088 15.7252 7.11731 16.0061 7.02371C16.1686 6.96826 16.3117 6.86716 16.4181 6.73243C16.5245 6.59771 16.5898 6.43514 16.606 6.26427L16.7708 4.59992H19.2291L19.3956 6.26385C19.4118 6.43487 19.4771 6.59758 19.5834 6.7323C19.6899 6.86715 19.8329 6.96826 19.9955 7.0237C20.2765 7.11731 20.5504 7.23088 20.8151 7.36332C20.9692 7.43925 21.142 7.46911 21.3127 7.44916C21.4834 7.42921 21.6447 7.36037 21.7772 7.25083L23.0688 6.19155L24.8069 7.92967L23.7478 9.22464H23.7476C23.6381 9.35709 23.5693 9.51832 23.5493 9.68907C23.5293 9.85969 23.5592 10.0326 23.6351 10.1867C23.7676 10.4515 23.8812 10.7253 23.9748 11.0062C24.0302 11.1687 24.1313 11.3118 24.266 11.4182C24.4008 11.5246 24.5633 11.5899 24.7342 11.6061L26.3985 11.7709L26.3985 14.2292Z" fill="#4263c1" stroke="#4263c1" stroke-width="0.25"/>
<path d="M32.8329 21.6401L28.3329 17.6401C28.2409 17.5591 28.1228 17.5144 28.0003 17.5142H26.5003V18.5142H27.5003V21.5142H23.0003C22.771 21.5142 22.571 21.6702 22.5152 21.8928L22.1099 23.5142H13.8904L13.4848 21.8928H13.4851C13.4293 21.6702 13.2293 21.5142 13 21.5142H8.50001V18.5142H9.50001V17.5142H8.00001C7.87747 17.5144 7.75939 17.5591 7.66742 17.6401L3.16741 21.6401C3.06072 21.7352 2.99978 21.8713 3 22.0142V31.0142C3 31.412 3.15804 31.7937 3.43929 32.0749C3.72054 32.3561 4.10226 32.5142 4.49997 32.5142H31.5C31.8978 32.5142 32.2795 32.3562 32.5607 32.0749C32.8419 31.7937 33 31.4119 33 31.0142V22.0142C33.0002 21.8713 32.9393 21.7352 32.8326 21.6401H32.8329ZM28.5003 19.1276L31.1853 21.5142H28.5003V19.1276ZM4.81512 21.5142L7.50015 19.1276V21.5142H4.81512ZM31.5003 31.5142H4.50026C4.22415 31.5142 4.00026 31.2903 4.00026 31.0142V22.5142H12.61L13.0156 24.1356H13.0153C13.0712 24.3582 13.2712 24.5142 13.5004 24.5142H22.5004C22.7297 24.5142 22.9297 24.3582 22.9855 24.1356L23.3908 22.5142H32.0006V31.0142C32.0006 31.1468 31.9479 31.274 31.8541 31.3678C31.7604 31.4615 31.6331 31.5142 31.5006 31.5142H31.5003Z" fill="#4263c1"/>
<path d="M20.1923 27.0192H14.8077C14.5191 27.0192 14.2525 27.2098 14.1082 27.5192C13.9639 27.8285 13.9639 28.2098 14.1082 28.5192C14.2525 28.8285 14.5191 29.0192 14.8077 29.0192H20.1923C20.4809 29.0192 20.7475 28.8285 20.8918 28.5192C21.0361 28.2098 21.0361 27.8285 20.8918 27.5192C20.7475 27.2098 20.4809 27.0192 20.1923 27.0192ZM20.1923 28.3525H14.8077C14.659 28.3525 14.5385 28.2032 14.5385 28.0192C14.5385 27.8351 14.659 27.6858 14.8077 27.6858H20.1923C20.341 27.6858 20.4615 27.8351 20.4615 28.0192C20.4615 28.2032 20.341 28.3525 20.1923 28.3525Z" fill="#4263c1"/>
<circle cx="18" cy="13" r="2.5" stroke="#4263c1"/>
</g>
<defs>
<clipPath id="clip0_642_17237">
<rect width="36" height="36" fill="white"/>
</clipPath>
</defs>
</svg>
