<svg width="21" height="21" viewBox="0 0 21 21" fill="none" xmlns="http://www.w3.org/2000/svg">
<path d="M5.99575 6.25027C5.80605 6.43531 5.8729 6.58526 6.13793 6.58526H13.9059C16.9956 6.58526 19.5 9.02854 19.5 12.0428C19.5 15.0581 16.9983 17.5 13.9059 17.5H9.76823C9.09768 17.5 8.55402 16.9733 8.55402 16.3136C8.55402 15.6585 9.09663 15.1272 9.76823 15.1272H13.9059C15.6545 15.1272 17.0676 13.7479 17.0676 12.0428C17.0676 10.3387 15.6522 8.95803 13.9059 8.95803H6.13793C5.86951 8.95803 5.80504 9.10699 5.99575 9.29302L6.73891 10.0183C7.21365 10.4811 7.21637 11.2288 6.73823 11.6952C6.26315 12.1587 5.49518 12.1603 5.01677 11.6936L1.85784 8.61213C1.38208 8.14803 1.37937 7.39795 1.85784 6.93119L5.01677 3.84973C5.49254 3.38563 6.26009 3.38167 6.73823 3.8484C7.21332 4.3115 7.21366 5.06224 6.73891 5.52536L5.99575 6.25027Z" fill="#2B55CE" stroke="white" stroke-width="0.5"/>
</svg>
