<svg width="16" height="17" viewBox="0 0 16 17" fill="none" xmlns="http://www.w3.org/2000/svg">
<path d="M7.96319 15.9999C12.2792 15.9999 15.2037 12.2499 15.2037 8.7593C15.2037 5.26878 12.3028 1.51874 7.96319 1.51874C5.32172 1.51874 3.29338 2.95742 2.13772 4.44331L2.18494 1.47166C2.18494 1.21221 1.97271 1 1.71328 1C1.45384 1 1.24163 1.21223 1.24163 1.47166L1.17088 5.71693C1.17088 5.83489 1.2181 5.97638 1.31237 6.04711C1.40664 6.14138 1.52459 6.1886 1.64255 6.1886L5.88783 6.11786C6.14727 6.11786 6.35948 5.90563 6.35948 5.6462C6.35948 5.38676 6.14726 5.17454 5.88783 5.17454L2.75104 5.22176C3.69435 3.92455 5.55768 2.46233 7.9633 2.46233C11.737 2.46233 14.2605 5.71709 14.2605 8.75949C14.2603 11.8019 11.7368 15.0567 7.9633 15.0567C4.75575 15.0567 2.60953 12.7217 1.92557 10.434C1.85482 10.1746 1.59539 10.0331 1.33594 10.1274C1.0765 10.1981 0.935023 10.4575 1.02929 10.717C1.80759 13.3351 4.26032 15.9999 7.96319 15.9999Z" fill="#414042" stroke="#414042" stroke-width="0.5"/>
</svg>
