<svg width="26" height="26" viewBox="0 0 26 26" fill="none" xmlns="http://www.w3.org/2000/svg">
<g clip-path="url(#clip0_2751_29798)">
<path d="M21.667 2.16699H4.33366C3.14199 2.16699 2.16699 3.14199 2.16699 4.33366V21.667C2.16699 22.8587 3.14199 23.8337 4.33366 23.8337H21.667C22.8587 23.8337 23.8337 22.8587 23.8337 21.667V4.33366C23.8337 3.14199 22.8587 2.16699 21.667 2.16699ZM8.66699 21.667H4.33366V17.3337H8.66699V21.667ZM8.66699 15.167H4.33366V10.8337H8.66699V15.167ZM8.66699 8.66699H4.33366V4.33366H8.66699V8.66699ZM15.167 21.667H10.8337V17.3337H15.167V21.667ZM15.167 15.167H10.8337V10.8337H15.167V15.167ZM15.167 8.66699H10.8337V4.33366H15.167V8.66699ZM21.667 21.667H17.3337V17.3337H21.667V21.667ZM21.667 15.167H17.3337V10.8337H21.667V15.167ZM21.667 8.66699H17.3337V4.33366H21.667V8.66699Z" fill="black"/>
</g>
<defs>
<clipPath id="clip0_2751_29798">
<rect width="26" height="26" fill="white"/>
</clipPath>
</defs>
</svg>
