<svg width="20" height="18" viewBox="0 0 20 18" fill="none" xmlns="http://www.w3.org/2000/svg">
<path fill-rule="evenodd" clip-rule="evenodd" d="M12.1005 13.3582L7.93594 17.5228C7.612 17.8468 7.08788 17.8479 6.76017 17.5202C6.43484 17.1947 6.43554 16.6663 6.75752 16.3444L10.9228 12.1791C10.3418 11.3623 10.0001 10.3633 10.0001 9.28432C10.0001 6.52292 12.2387 4.28438 15.0001 4.28438C17.7615 4.28438 20 6.52292 20 9.28432C20 12.0457 17.7615 14.2843 15.0001 14.2843C13.9191 14.2843 12.9185 13.9413 12.1007 13.3583L12.1005 13.3582ZM12.7484 11.7422C13.3414 12.2859 14.132 12.6176 14.9999 12.6176C16.8409 12.6176 18.3332 11.1252 18.3332 9.28422C18.3332 7.44328 16.8409 5.95097 14.9999 5.95097C13.159 5.95097 11.6667 7.44328 11.6667 9.28422C11.6667 10.1503 11.9969 10.9391 12.5382 11.5317C12.5783 11.5597 12.6167 11.5917 12.6526 11.6277C12.6886 11.6635 12.7204 11.7019 12.7484 11.7422ZM0 5.11763C0 4.65738 0.374281 4.28421 0.829526 4.28421H7.50373C7.96187 4.28421 8.33326 4.65417 8.33326 5.11763C8.33326 5.57787 7.95908 5.9509 7.50373 5.9509H0.829526C0.371388 5.9509 0 5.58108 0 5.11763ZM0 9.284C0 8.82376 0.373746 8.45073 0.835776 8.45073H4.99751C5.45901 8.45073 5.83314 8.82055 5.83314 9.284C5.83314 9.74425 5.4594 10.1174 4.99751 10.1174H0.835776C0.374138 10.1174 0 9.74746 0 9.284ZM0 13.4507C0 12.9905 0.373746 12.6175 0.835776 12.6175H4.99751C5.45901 12.6175 5.83314 12.9873 5.83314 13.4507C5.83314 13.911 5.4594 14.284 4.99751 14.284H0.835776C0.374138 14.284 0 13.9142 0 13.4507ZM0 0.95089C0 0.490646 0.374567 0.117615 0.835383 0.117615H17.4977C17.959 0.117615 18.3331 0.487432 18.3331 0.95089C18.3331 1.41113 17.9586 1.78417 17.4977 1.78417H0.835383C0.374031 1.78417 0 1.41435 0 0.95089Z" fill="#414042"/>
</svg>
