<svg width="19" height="19" viewBox="0 0 19 19" fill="none" xmlns="http://www.w3.org/2000/svg">
<path d="M10.7852 6.28589C10.7852 6.99593 10.2096 7.57158 9.49956 7.57158C8.78952 7.57158 8.21387 6.99593 8.21387 6.28589C8.21387 5.57571 8.78952 5.00006 9.49956 5.00006C10.2096 5.00006 10.7852 5.57571 10.7852 6.28589Z" fill="#2B55CE"/>
<path d="M9.31175 13.9225C9.41574 14.026 9.5839 14.026 9.68789 13.9225L11.3507 12.2597C11.4542 12.1558 11.4542 11.9877 11.3507 11.8837L9.68789 10.2209C9.5839 10.1172 9.41574 10.1172 9.31175 10.2209L7.64898 11.8837C7.54539 11.9877 7.54539 12.1558 7.64898 12.2597L9.31175 13.9225Z" fill="#2B55CE"/>
<path d="M2.42881 5.32159H3.7145C3.89208 5.32159 4.03589 5.49917 4.03589 5.64298V6.92867C4.03589 7.10625 3.89194 7.25006 3.7145 7.25006H2.42881C2.25123 7.25006 2.10742 7.07248 2.10742 6.92867V5.64298C2.10742 5.46541 2.25137 5.32159 2.42881 5.32159Z" fill="#2B55CE"/>
<path d="M1.14268 11.1074H4.99989C5.17746 11.1074 5.32127 11.2849 5.32127 11.4287V12.7144C5.32127 12.892 5.17733 13.0358 4.99989 13.0358H1.14268C0.965101 13.0358 0.821289 12.8583 0.821289 12.7144V11.4287C0.821289 11.2512 0.965235 11.1074 1.14268 11.1074Z" fill="#2B55CE"/>
<path d="M0.821388 16.5715H5.32158C5.49915 16.5715 5.64297 16.7491 5.64297 16.8929V18.1786C5.64297 18.3562 5.49902 18.5 5.32158 18.5H0.821388C0.643812 18.5 0.5 18.3224 0.5 18.1786V16.8929C0.5 16.7153 0.643946 16.5715 0.821388 16.5715Z" fill="#2B55CE"/>
<path d="M14.0001 11.1074H17.8573C18.0349 11.1074 18.1787 11.2849 18.1787 11.4287V12.7144C18.1787 12.892 18.0347 13.0358 17.8573 13.0358H14.0001C13.8225 13.0358 13.6787 12.8583 13.6787 12.7144V11.4287C13.6787 11.2512 13.8227 11.1074 14.0001 11.1074Z" fill="#2B55CE"/>
<path d="M15.2862 5.32159H16.5719C16.7495 5.32159 16.8933 5.49917 16.8933 5.64298V6.92867C16.8933 7.10625 16.7494 7.25006 16.5719 7.25006H15.2862C15.1087 7.25006 14.9648 7.07248 14.9648 6.92867V5.64298C14.9648 5.46541 15.1088 5.32159 15.2862 5.32159Z" fill="#2B55CE"/>
<path d="M13.6788 16.5715H18.179C18.3566 16.5715 18.5004 16.7491 18.5004 16.8929V18.1786C18.5004 18.3562 18.3564 18.5 18.179 18.5H13.6788C13.5012 18.5 13.3574 18.3224 13.3574 18.1786V16.8929C13.3574 16.7153 13.5014 16.5715 13.6788 16.5715Z" fill="#2B55CE"/>
<path d="M7.57139 0.5H11.4286C11.6062 0.5 11.75 0.677576 11.75 0.821388V2.10708C11.75 2.28465 11.606 2.42847 11.4286 2.42847H7.57139C7.39381 2.42847 7.25 2.25089 7.25 2.10708V0.821388C7.25 0.643812 7.39395 0.5 7.57139 0.5Z" fill="#2B55CE"/>
<path d="M2.75 13.6786H3.39291V15.9286H2.75V13.6786Z" fill="#2B55CE"/>
<path d="M6.92818 12.0717C6.92778 11.9619 6.94742 11.853 6.98603 11.7502H5.96387V12.3931H6.98603C6.94742 12.2903 6.92778 12.1815 6.92818 12.0717Z" fill="#2B55CE"/>
<path d="M15.6074 13.6786H16.2503V15.9286H15.6074V13.6786Z" fill="#2B55CE"/>
<path d="M12.0715 12.0717C12.0719 12.1815 12.0523 12.2903 12.0137 12.3931H13.0358V11.7502H12.0137C12.0523 11.853 12.0719 11.9619 12.0715 12.0717Z" fill="#2B55CE"/>
<path d="M6.28613 17.2145H12.7149V17.8575H6.28613V17.2145Z" fill="#2B55CE"/>
<path d="M9.17871 8.18555V9.55802C9.38602 9.48094 9.6142 9.48094 9.82149 9.55802V8.18555C9.60893 8.22402 9.39127 8.22402 9.17871 8.18555Z" fill="#2B55CE"/>
<path d="M9.82149 4.38623V3.07147H9.17871V4.38623C9.39127 4.34762 9.60893 4.34762 9.82149 4.38623Z" fill="#2B55CE"/>
<path d="M7.57162 6.28588C7.57135 6.17799 7.58104 6.0705 7.60055 5.96436H4.67871V6.60727H7.60055C7.58104 6.50126 7.57135 6.39363 7.57162 6.28588Z" fill="#2B55CE"/>
<path d="M2.75 7.89282H3.39291V10.4643H2.75V7.89282Z" fill="#2B55CE"/>
<path d="M14.3212 5.96423H11.3994C11.438 6.17679 11.438 6.39459 11.3994 6.60715H14.3212V5.96423Z" fill="#2B55CE"/>
<path d="M15.6074 7.89282H16.2503V10.4643H15.6074V7.89282Z" fill="#2B55CE"/>
</svg>
