<svg width="20" height="14" viewBox="0 0 20 14" fill="none" xmlns="http://www.w3.org/2000/svg">
<path d="M1.33333 13.5H18.6667C19.2625 13.5 19.75 13.0125 19.75 12.4167C19.75 11.8208 19.2625 11.3333 18.6667 11.3333H1.33333C0.7375 11.3333 0.25 11.8208 0.25 12.4167C0.25 13.0125 0.7375 13.5 1.33333 13.5ZM1.33333 8.08333H18.6667C19.2625 8.08333 19.75 7.59583 19.75 7C19.75 6.40417 19.2625 5.91667 18.6667 5.91667H1.33333C0.7375 5.91667 0.25 6.40417 0.25 7C0.25 7.59583 0.7375 8.08333 1.33333 8.08333ZM0.25 1.58333C0.25 2.17917 0.7375 2.66667 1.33333 2.66667H18.6667C19.2625 2.66667 19.75 2.17917 19.75 1.58333C19.75 0.9875 19.2625 0.5 18.6667 0.5H1.33333C0.7375 0.5 0.25 0.9875 0.25 1.58333Z" fill="#414042"/>
</svg>
