<svg width="18" height="18" viewBox="0 0 18 18" fill="none" xmlns="http://www.w3.org/2000/svg">
<g id="Group 1000001242">
<path id="Vector" d="M9.17472 0.5H12.0017C12.0285 0.5 12.0714 0.511543 12.1181 0.566641C12.1657 0.622807 12.2059 0.714776 12.2059 0.831273V17.1687C12.2059 17.2852 12.1657 17.3772 12.1181 17.4334C12.0714 17.4885 12.0285 17.5 12.0017 17.5H9.17472C9.14797 17.5 9.10501 17.4885 9.05834 17.4334C9.01076 17.3772 8.97058 17.2852 8.97058 17.1687V0.831273C8.97058 0.714787 9.01076 0.622814 9.05834 0.566643C9.10501 0.511544 9.14796 0.5 9.17472 0.5Z" stroke="#414042"/>
<path id="Vector_2" d="M14.4688 0.5H17.2958C17.3226 0.5 17.3655 0.511543 17.4122 0.566641C17.4598 0.622807 17.4999 0.714776 17.4999 0.831273V17.1687C17.4999 17.2852 17.4598 17.3772 17.4122 17.4334C17.3655 17.4885 17.3226 17.5 17.2958 17.5H14.4688C14.442 17.5 14.3991 17.4885 14.3524 17.4334C14.3048 17.3772 14.2646 17.2852 14.2646 17.1687V0.831273C14.2646 0.714787 14.3048 0.622814 14.3524 0.566643C14.3991 0.511544 14.442 0.5 14.4688 0.5Z" stroke="#414042"/>
<path id="Exclude" d="M6.17953 0H1.23224C0.551653 0 0 0.372179 0 0.831273V17.1687C0 17.6279 0.551701 18 1.23224 18H6.17953C6.86011 18 7.41177 17.6278 7.41177 17.1687V0.831273C7.41177 0.372147 6.86006 0 6.17953 0Z" fill="#414042"/>
</g>
</svg>
