<svg width="20" height="20" viewBox="0 0 20 20" fill="none" xmlns="http://www.w3.org/2000/svg">
<g clip-path="url(#clip0_252_32378)">
<path d="M14.0408 5.70833L15.2408 6.90833L11.1741 10.975L8.43242 8.23333C8.10742 7.90833 7.58242 7.90833 7.25742 8.23333L2.25742 13.2417C1.93242 13.5667 1.93242 14.0917 2.25742 14.4167C2.58242 14.7417 3.10742 14.7417 3.43242 14.4167L7.84075 10L10.5824 12.7417C10.9074 13.0667 11.4324 13.0667 11.7574 12.7417L16.4158 8.09167L17.6158 9.29167C17.8741 9.55 18.3241 9.36667 18.3241 9V5.41667C18.3324 5.18333 18.1491 5 17.9158 5H14.3408C13.9658 5 13.7824 5.45 14.0408 5.70833Z" fill="#414042"/>
</g>
<defs>
<clipPath id="clip0_252_32378">
<rect width="20" height="20" fill="white"/>
</clipPath>
</defs>
</svg>
