<svg width="100" height="46" viewBox="0 0 100 46" fill="none" xmlns="http://www.w3.org/2000/svg">
<g clip-path="url(#clip0_258_23025)">
<path d="M45.6231 23.7326C45.6951 23.728 45.7655 23.725 45.8022 23.6637C50.3823 15.9042 51.2916 8.22732 47.3973 3.69927C45.8099 1.85161 43.5826 0.717302 40.9374 0.248883C40.2669 0.129482 39.5719 0.0529426 38.8509 0.0207962C31.768 -0.314445 22.421 3.41301 14.164 10.5112C3.88786 19.3454 -1.47446 30.6349 0.353289 38.1817C-0.122784 34.5445 1.33911 29.9736 4.367 25.4884C5.62224 23.6285 7.14537 21.7839 8.91189 20.0266C9.60227 19.3393 10.3309 18.6642 11.0948 18.0075C20.5841 9.84688 31.9609 7.5155 36.5027 12.7982C39.0836 15.8001 38.9045 20.6129 36.5272 25.7073L39.0652 26.4207C40.5792 26.8462 40.8945 25.3767 41.1318 24.596C41.392 23.7449 42.2891 22.8555 43.5979 23.1172C43.8137 23.1601 44.9756 23.7693 45.6216 23.7326H45.6231ZM35.7649 14.1867C33.4794 11.5705 29.4963 10.6796 24.5427 11.6792C19.6365 12.6712 14.3523 15.4021 9.66504 19.3729C9.4094 19.5888 9.15835 19.8077 8.91036 20.0281C7.14384 21.7855 5.62071 23.63 4.36547 25.4899C5.95595 23.4418 7.8281 21.5023 9.94823 19.7067C19.4743 11.6364 30.9077 9.28968 35.4342 14.4744C36.8119 16.0527 37.438 18.2417 37.2451 20.8027C37.1303 22.3273 36.7369 23.9408 36.097 25.5894C36.071 25.6568 36.1231 25.7287 36.1965 25.7226C36.3037 25.715 36.4109 25.7104 36.518 25.7073C37.1671 24.0311 37.5651 22.3886 37.6814 20.8348C37.8835 18.1544 37.2206 15.8552 35.7633 14.1851L35.7649 14.1867ZM35.3959 38.719H34.9796C34.8923 38.719 34.8081 38.7389 34.7331 38.7833C32.5089 40.0875 30.0214 41.2585 27.3425 42.2551C25.4688 42.9516 23.5079 43.5578 21.5776 44.0446C24.6346 42.898 27.7926 41.2585 30.8893 39.1583C31.0638 39.0404 30.9796 38.7679 30.7699 38.7679H25.7444C25.5622 38.7679 25.3846 38.8276 25.2377 38.9363C17.7812 44.464 9.62983 46.4877 4.69459 44.2083C7.79595 46.1142 12.1265 46.4693 16.9592 45.4207C20.2795 44.9293 24.0345 43.9496 27.4925 42.6638C30.3903 41.5861 33.0707 40.3033 35.4373 38.8705C35.5077 38.8276 35.4771 38.7205 35.3944 38.7205L35.3959 38.719Z" fill="url(#paint0_linear_258_23025)"/>
<path d="M22.9913 24.3066C22.2228 24.3066 21.5324 24.7781 21.2538 25.4945L19.3863 30.2828C19.1398 30.9655 18.8918 31.6697 18.6454 32.3876C18.6622 31.7539 18.6745 31.1033 18.6837 30.416L18.7219 24.5653C18.7219 24.423 18.6071 24.3066 18.4648 24.3066H16.3982C15.6359 24.3066 14.9501 24.7705 14.6669 25.4777L12.7289 30.315C12.3998 31.1875 12.1151 31.9514 11.8579 32.654C11.8702 31.9054 11.8809 31.1247 11.8901 30.393L11.8702 24.5623C11.8702 24.4215 11.7553 24.3066 11.613 24.3066H10.3531C9.29537 24.3066 8.44885 25.1868 8.48865 26.2446L8.92952 37.6566C8.93411 37.7944 9.04892 37.903 9.18669 37.903H12.3768C12.4809 37.903 12.5728 37.8418 12.6141 37.7454L14.8414 32.4581C15.1843 31.6207 15.4705 30.84 15.7323 30.0899C15.7124 30.8079 15.7032 31.5182 15.7032 32.2621L15.8012 37.6505C15.8043 37.7898 15.9175 37.903 16.0584 37.903H19.1904C19.2929 37.903 19.3848 37.8433 19.4261 37.75L25.191 24.6679C25.266 24.498 25.142 24.3082 24.9553 24.3082H22.9943L22.9913 24.3066Z" fill="#414042"/>
<path d="M27.7562 27.347C28.892 27.347 29.7171 26.554 29.7171 25.4626C29.7171 24.466 29.0129 23.7695 28.0057 23.7695C26.9311 23.7695 26.1044 24.5854 26.083 25.6738C26.083 26.6596 26.7719 27.347 27.7562 27.347Z" fill="#414042"/>
<path d="M24.1557 37.9028H27.0688C27.1928 37.9028 27.2984 37.8156 27.3214 37.6946L29.1338 28.164C29.1645 28.0063 29.042 27.8594 28.8813 27.8594H27.3C26.4045 27.8594 25.6345 28.4962 25.4676 29.3764L23.9032 37.5997C23.8725 37.7574 23.995 37.9044 24.1557 37.9044V37.9028Z" fill="#414042"/>
<path d="M43.2103 27.347C44.3461 27.347 45.1712 26.554 45.1712 25.4626C45.1712 24.466 44.467 23.7695 43.4598 23.7695C42.3852 23.7695 41.5585 24.5854 41.5371 25.6738C41.5371 26.6596 42.226 27.347 43.2103 27.347Z" fill="#414042"/>
<path d="M39.6098 37.9028H42.5229C42.6469 37.9028 42.7525 37.8156 42.7755 37.6946L44.5879 28.164C44.6185 28.0063 44.4961 27.8594 44.3354 27.8594H42.7541C41.8586 27.8594 41.0886 28.4962 40.9217 29.3764L39.3573 37.5997C39.3266 37.7574 39.4491 37.9044 39.6098 37.9044V37.9028Z" fill="#414042"/>
<path d="M55.6536 27.347C56.7895 27.347 57.6145 26.554 57.6145 25.4626C57.6145 24.466 56.9104 23.7695 55.9031 23.7695C54.8285 23.7695 54.0019 24.5854 53.9805 25.6738C53.9805 26.6596 54.6693 27.347 55.6536 27.347Z" fill="#414042"/>
<path d="M52.0532 37.9028H54.9663C55.0903 37.9028 55.1959 37.8156 55.2188 37.6946L57.0313 28.164C57.0619 28.0063 56.9394 27.8594 56.7787 27.8594H55.1974C54.3019 27.8594 53.5319 28.4962 53.3651 29.3764L51.8006 37.5997C51.77 37.7574 51.8925 37.9044 52.0532 37.9044V37.9028Z" fill="#414042"/>
<path d="M78.5423 27.347C79.6781 27.347 80.5032 26.554 80.5032 25.4626C80.5032 24.466 79.7991 23.7695 78.7918 23.7695C77.7172 23.7695 76.8906 24.5854 76.8691 25.6738C76.8691 26.6596 77.558 27.347 78.5423 27.347Z" fill="#414042"/>
<path d="M74.9419 37.9028H77.8549C77.9789 37.9028 78.0846 37.8156 78.1075 37.6946L79.92 28.164C79.9506 28.0063 79.8281 27.8594 79.6674 27.8594H78.0861C77.1906 27.8594 76.4206 28.4962 76.2537 29.3764L74.6893 37.5997C74.6587 37.7574 74.7811 37.9044 74.9419 37.9044V37.9028Z" fill="#414042"/>
<path d="M30.4878 29.3845C30.6301 28.5058 31.3879 27.8598 32.2773 27.8583H33.56C33.7147 27.8568 33.8341 27.9915 33.8157 28.1445L33.7376 28.7722C34.5397 28.0313 35.521 27.6455 36.6247 27.6455C38.333 27.6455 39.3541 28.7232 39.3541 30.528C39.3541 30.9811 39.2729 31.7159 39.1964 32.1751L38.1478 37.692C38.1248 37.813 38.0192 37.9002 37.8952 37.9002H34.9837C34.8229 37.9002 34.702 37.7533 34.7311 37.5956L35.7261 32.3083C35.7827 31.9837 35.8164 31.6209 35.8164 31.3133C35.8164 30.5907 35.5118 30.5295 35.2255 30.5295C34.5107 30.5295 33.5616 31.5582 33.208 33.4655L32.4089 37.6905C32.3859 37.8114 32.2803 37.9002 32.1563 37.9002H29.2432C29.0825 37.9002 28.9616 37.7533 28.9907 37.5956L30.1969 31.1755L30.4878 29.3829V29.3845Z" fill="#414042"/>
<path d="M49.8523 30.3979H51.6372C51.7597 30.3979 51.8668 30.3106 51.8898 30.1897L52.3215 27.9517C52.3521 27.7925 52.2312 27.6456 52.0689 27.6456H50.3835L50.829 25.2973C50.8642 25.1152 50.6989 24.9575 50.5182 24.9988L48.5588 25.4519C47.8409 25.6173 47.2883 26.1913 47.1474 26.9138L47.0051 27.6456H46.007C45.883 27.6456 45.7774 27.7343 45.7544 27.8568L45.3442 30.0948C45.3151 30.2525 45.436 30.3979 45.5968 30.3979H46.4739L45.8203 33.7488C45.6825 34.482 45.6228 35.0224 45.6228 35.5566C45.6228 37.0032 46.6836 37.9018 48.3904 37.9018C48.9629 37.9018 49.7268 37.8299 50.1416 37.6676L50.1815 37.6523C50.2672 37.6186 50.3284 37.5421 50.3422 37.4517L50.6897 35.1433C50.7157 34.9719 50.5672 34.8249 50.3973 34.8509L50.2993 34.8663C50.0743 34.9015 49.8248 34.9015 49.5814 34.9015C49.2354 34.9015 49.1237 34.7897 49.1237 34.4438C49.1237 34.1958 49.1773 33.7855 49.2706 33.3186L49.8508 30.3979H49.8523Z" fill="#414042"/>
<path d="M72.8213 30.3979H74.6062C74.7287 30.3979 74.8358 30.3106 74.8588 30.1897L75.2905 27.9517C75.3211 27.7925 75.2002 27.6456 75.0379 27.6456H73.3525L73.798 25.2973C73.8332 25.1152 73.6678 24.9575 73.4872 24.9988L71.5278 25.4519C70.8099 25.6173 70.2573 26.1913 70.1164 26.9138L69.9741 27.6456H68.976C68.852 27.6456 68.7464 27.7343 68.7234 27.8568L68.3132 30.0948C68.2841 30.2525 68.405 30.3979 68.5658 30.3979H69.4429L68.7892 33.7488C68.6515 34.482 68.5918 35.0224 68.5918 35.5566C68.5918 37.0032 69.6526 37.9018 71.3594 37.9018C71.9319 37.9018 72.6958 37.8299 73.1106 37.6676L73.1504 37.6523C73.2362 37.6186 73.2974 37.5421 73.3112 37.4517L73.6587 35.1433C73.6847 34.9719 73.5362 34.8249 73.3663 34.8509L73.2683 34.8663C73.0433 34.9015 72.7938 34.9015 72.5504 34.9015C72.2044 34.9015 72.0927 34.7897 72.0927 34.4438C72.0927 34.1958 72.1463 33.7855 72.2396 33.3186L72.8198 30.3979H72.8213Z" fill="#414042"/>
<path d="M63.3216 37.693C63.1456 37.693 63.0063 37.5445 63.0155 37.37C63.0415 36.9184 63.0645 36.4653 63.0813 36.0137H63.0247C62.2118 37.422 61.0331 37.9027 60.035 37.9027C58.2961 37.9027 57.1357 36.5372 57.1357 34.4768C57.1357 31.2468 59.089 27.5684 64.0595 27.5684C65.3071 27.5684 66.6189 27.8179 67.4685 28.0949L66.4046 33.3425C66.2118 34.339 66.0219 36.1392 66.0112 37.3914C66.0112 37.5598 65.8734 37.6945 65.7051 37.6945H63.3186L63.3216 37.693ZM63.7395 30.1278C63.5268 30.088 63.2971 30.0681 63.1364 30.0681C61.5735 30.0681 60.5769 32.4408 60.5769 33.8277C60.5769 34.7003 60.9091 35.2131 61.5015 35.2131C62.0939 35.2131 62.8762 34.5548 63.2895 32.3429L63.7395 30.1278Z" fill="#414042"/>
<path d="M83.7881 27.9859C83.9519 27.9859 84.0866 28.1145 84.0943 28.2783L84.2489 31.8389C84.2917 33.1401 84.3667 33.8258 84.4019 34.6907H84.4662C84.7403 33.858 85.0326 33.1232 85.5363 31.8573L87.0027 28.1788C87.0487 28.0624 87.1619 27.9859 87.2875 27.9859H90.2373C90.4684 27.9859 90.6169 28.2324 90.5067 28.436L85.5347 37.74C85.4811 37.8395 85.3771 37.9023 85.2653 37.9023H82.3048C82.1532 37.9023 82.0231 37.7906 82.0017 37.639L80.8153 29.3835C80.7097 28.6457 81.2822 27.9844 82.0277 27.9844H83.7881V27.9859Z" fill="#414042"/>
<path d="M98.0853 36.962C98.0945 37.0906 98.0241 37.213 97.9047 37.2651C96.7092 37.7809 95.3866 37.9034 94.3839 37.9034C91.5336 37.9034 90.0625 36.3619 90.0625 33.7244C90.0625 30.7133 92.1245 27.5859 95.7769 27.5859C97.8236 27.5859 99.2839 28.7861 99.2916 30.6919C99.2916 33.1457 97.2204 34.1836 93.6721 34.1545C93.4272 34.153 93.2771 34.4255 93.4134 34.6291C93.4593 34.6979 93.5129 34.7638 93.5772 34.8235C93.9262 35.1373 94.4926 35.3317 95.2457 35.3317C96.0769 35.3317 96.827 35.1939 97.5342 34.9199C97.7271 34.8449 97.9399 34.9735 97.9537 35.1817L98.0838 36.9635L98.0853 36.962ZM95.3789 30.0474C94.4528 30.0474 93.8849 30.6689 93.6476 31.3042C93.571 31.5093 93.7211 31.7252 93.94 31.7221C95.5565 31.7022 96.2162 31.3608 96.2162 30.7424C96.2162 30.349 95.9193 30.0474 95.3804 30.0474H95.3789Z" fill="#414042"/>
</g>
<defs>
<linearGradient id="paint0_linear_258_23025" x1="-0.000321822" y1="22.9994" x2="49.845" y2="22.9994" gradientUnits="userSpaceOnUse">
<stop stop-color="#2B2B69"/>
<stop offset="1" stop-color="#009782"/>
</linearGradient>
<clipPath id="clip0_258_23025">
<rect width="99.2926" height="46" fill="white"/>
</clipPath>
</defs>
</svg>
