<svg width="126" height="64" viewBox="0 0 126 64" fill="none" xmlns="http://www.w3.org/2000/svg">
<g clip-path="url(#clip0_829_23616)">
<path d="M121.446 43.2981L121.434 43.2923C120.548 42.8725 120.099 42.5108 120.099 42.2176C120.099 41.7441 120.724 41.533 121.344 41.533C122.397 41.533 123.236 41.8262 123.754 42.0727L123.856 42.1217C124.05 42.213 124.279 42.116 124.347 41.9129L125.313 39.0194C125.366 38.8597 125.3 38.6851 125.154 38.6007L125.083 38.5596C124.302 38.1055 122.964 37.834 121.502 37.834C117.865 37.834 115.326 39.8558 115.326 42.7504C115.326 44.3295 116.343 45.6279 118.349 46.6114C119.61 47.2264 119.715 47.5721 119.715 47.8733C119.715 48.3057 119.247 48.5853 118.523 48.5853C117.424 48.5853 116.113 48.1255 115.323 47.7307L115.22 47.6793C115.028 47.5835 114.795 47.6782 114.724 47.8813L113.731 50.7405C113.68 50.8855 113.73 51.0475 113.852 51.1399L113.91 51.1844C114.794 51.853 116.468 52.2854 118.176 52.2854C122.073 52.2854 124.591 50.3138 124.591 47.2629C124.591 45.1453 122.794 43.9861 121.443 43.2992L121.446 43.2981Z" fill="white"/>
<path d="M49.0499 53.9297C49.1631 53.9297 49.2053 54.0792 49.1093 54.1373C45.8286 56.1203 42.1158 57.8945 38.1 59.3846C33.3081 61.1634 28.1046 62.5177 23.5024 63.1977C22.7937 63.3038 22.0998 63.3928 21.4242 63.4647L21.3602 62.868C24.0043 62.5862 26.9272 62.0431 29.9027 61.2957C32.5765 60.6237 35.2948 59.7851 37.8908 58.821C41.6025 57.4438 45.0513 55.8237 48.1331 54.0187C48.2371 53.9582 48.3549 53.9297 48.4749 53.9297C48.4749 53.9297 48.476 53.9297 48.4772 53.9297H49.0522H49.0499Z" fill="white"/>
<path d="M73.0609 25.5947C72.4791 27.1738 71.7818 28.7598 70.9782 30.3411C70.8902 30.5146 70.7313 30.6424 70.5449 30.6994C70.4832 30.7177 70.4226 30.7382 70.362 30.7587C70.2374 30.8021 70.1254 30.6697 70.186 30.5522C75.3152 20.7536 76.0445 11.3247 71.1291 5.61992C67.9284 1.90494 62.8049 0.315581 56.7281 0.652165C47.3992 1.1656 35.8217 6.21664 25.4994 15.0751L25.1073 14.6187C33.4646 7.4466 42.885 2.51079 51.6321 0.720623C52.3797 0.567734 53.1147 0.439946 53.8372 0.336118C61.6241 -0.786588 67.8723 0.91801 71.5863 5.22857C75.6432 9.93732 76.1668 17.171 73.0609 25.5947Z" fill="white"/>
<path d="M42.6405 53.9971C42.932 53.9971 43.0474 54.3747 42.8062 54.5379C38.5138 57.4428 34.1391 59.7099 29.9016 61.2958C27.7217 62.1127 25.5784 62.7494 23.5013 63.1978C16.805 64.6491 10.8025 64.1585 6.50549 61.5217C13.3447 64.6753 24.641 61.8754 34.9725 54.2298C35.1759 54.0792 35.4217 53.9971 35.6755 53.9971H42.6393H42.6405Z" fill="white"/>
<path d="M61.9842 35.4118C61.791 35.705 61.4778 35.9036 61.128 35.9469C59.8694 36.1032 58.732 36.4786 57.765 37.032C56.6207 37.6857 55.217 37.6013 54.1344 36.8517C53.2165 36.2173 52.0677 35.8648 50.7508 35.8648C50.7062 35.8648 50.6617 35.8648 50.6171 35.8659C53.9104 28.8205 54.1596 22.1629 50.5828 18.011C44.2877 10.7031 28.523 13.9286 15.3726 25.2162C14.3141 26.1244 13.3047 27.0577 12.3479 28.0092C9.9005 30.4395 7.78917 32.9907 6.05049 35.5636C1.85526 41.7658 -0.171477 48.0879 0.489242 53.1195C-2.0439 42.682 5.38863 27.0668 19.6273 14.8471C31.0687 5.02797 44.0213 -0.1269 53.8372 0.336331C54.8352 0.381969 55.8 0.486938 56.7282 0.652377C60.3953 1.30044 63.4805 2.87041 65.681 5.42502C71.4732 12.1487 69.5951 23.8961 61.9842 35.4118Z" fill="white"/>
<path d="M52.2186 29.1277C52.0563 31.2762 51.5042 33.5478 50.6057 35.8663C50.456 35.8697 50.3073 35.8765 50.1599 35.8868C50.0593 35.8936 49.9873 35.7955 50.0227 35.702C50.9086 33.4235 51.455 31.1917 51.6139 29.0821C51.8814 25.5394 51.0126 22.5124 49.1036 20.3286C42.8314 13.1565 26.9878 16.4026 13.786 27.5646C10.8482 30.0485 8.2556 32.7309 6.05054 35.5639C7.78921 32.991 9.90055 30.4398 12.348 28.0096C12.692 27.7038 13.0407 27.4015 13.3939 27.1025C19.8891 21.6122 27.2107 17.8333 34.01 16.4619C40.8732 15.0791 46.3945 16.3113 49.5609 19.9304C51.5796 22.2397 52.4987 25.4196 52.2186 29.1277Z" fill="white"/>
<path d="M31.8609 33.1846C30.7955 33.1846 29.8399 33.8372 29.4524 34.8276L26.8644 41.4497C26.5226 42.3944 26.1796 43.3677 25.8378 44.3614C25.8618 43.4852 25.879 42.585 25.8904 41.6345L25.9441 33.5428C25.9453 33.3454 25.7853 33.1857 25.5886 33.1857H22.724C21.6678 33.1857 20.7178 33.8269 20.3246 34.8059L17.6383 41.4976C17.181 42.7036 16.7867 43.7613 16.4311 44.7322C16.4494 43.6963 16.462 42.6169 16.4746 41.6049L16.4472 33.5405C16.4472 33.3443 16.2871 33.1869 16.0916 33.1869H14.3461C12.8795 33.1869 11.7067 34.4031 11.7627 35.867L12.3731 51.651C12.3799 51.8416 12.5377 51.9922 12.7286 51.9922H17.149C17.2919 51.9922 17.4211 51.9066 17.4771 51.7743L20.5635 44.4607C21.039 43.3026 21.4346 42.2233 21.7981 41.1861C21.7706 42.1799 21.7581 43.1611 21.7581 44.1903L21.8929 51.6431C21.8964 51.837 22.0553 51.9922 22.2485 51.9922H26.59C26.7306 51.9922 26.8586 51.9089 26.9158 51.78L34.9039 33.6855C35.0079 33.4504 34.8353 33.1869 34.5781 33.1869H31.8609V33.1846Z" fill="white"/>
<path d="M38.4646 37.3898C40.0398 37.3898 41.1829 36.2933 41.1829 34.7827C41.1829 33.4044 40.2078 32.4414 38.811 32.4414C37.3226 32.4414 36.1772 33.5698 36.1464 35.0747C36.1464 36.4371 37.0997 37.3898 38.4657 37.3898H38.4646Z" fill="white"/>
<path d="M33.475 51.9903H37.5113C37.6828 51.9903 37.8291 51.8694 37.8611 51.7017L40.3725 38.5179C40.4137 38.2988 40.2456 38.0957 40.0227 38.0957H37.8314C36.5899 38.0957 35.5234 38.9765 35.2914 40.1939L33.124 51.5682C33.0829 51.7872 33.2509 51.9903 33.4738 51.9903H33.475Z" fill="white"/>
<path d="M42.2472 40.2085C42.4438 38.9934 43.4943 38.1 44.7278 38.0989L46.5053 38.0966C46.7191 38.0966 46.8848 38.2837 46.8585 38.4959L46.7511 39.3642C47.8622 38.3396 49.2236 37.8057 50.752 37.8057C53.1205 37.8057 54.5334 39.2958 54.5334 41.7933C54.5334 42.4209 54.4202 43.4352 54.3139 44.0718L52.8599 51.7037C52.8279 51.8714 52.6816 51.9924 52.5101 51.9924H48.4737C48.2508 51.9924 48.0828 51.7904 48.124 51.5714L49.5026 44.2578C49.5814 43.8094 49.6272 43.3062 49.6272 42.8818C49.6272 41.8823 49.2042 41.799 48.8075 41.799C47.8176 41.799 46.5019 43.2218 46.0126 45.8586L44.9061 51.7026C44.8741 51.8703 44.7278 51.9924 44.5563 51.9924H40.52C40.2971 51.9924 40.129 51.7904 40.1702 51.5714L41.8414 42.6913L42.2438 40.2108L42.2472 40.2085Z" fill="white"/>
<path d="M62.4222 43.2688L62.4107 43.2631C61.5248 42.8432 61.0756 42.4815 61.0756 42.1883C61.0756 41.7148 61.7008 41.5037 62.3204 41.5037C63.3732 41.5037 64.2123 41.7969 64.7301 42.0434L64.833 42.0924C65.0262 42.1837 65.2559 42.0867 65.3234 41.8836L66.2893 38.9901C66.343 38.8304 66.2767 38.6558 66.1304 38.5714L66.0595 38.5303C65.2788 38.0762 63.9402 37.8047 62.4782 37.8047C58.8419 37.8047 56.3031 39.8265 56.3031 42.7211C56.3031 44.3002 57.3193 45.5986 59.3255 46.5821C60.5863 47.1971 60.6915 47.5428 60.6915 47.844C60.6915 48.2764 60.2239 48.556 59.4992 48.556C58.4007 48.556 57.0895 48.0962 56.2996 47.7014L56.1967 47.6501C56.0047 47.5542 55.7715 47.6489 55.7006 47.852L54.7073 50.7113C54.657 50.8562 54.7061 51.0182 54.8284 51.1106L54.8867 51.1551C55.7704 51.8237 57.445 52.2561 59.1528 52.2561C63.0497 52.2561 65.568 50.2845 65.568 47.2336C65.568 45.116 63.771 43.9568 62.4199 43.2699L62.4222 43.2688Z" fill="white"/>
<path d="M71.5487 37.3898C73.1239 37.3898 74.267 36.2933 74.267 34.7827C74.267 33.4044 73.292 32.4414 71.8951 32.4414C70.4067 32.4414 69.2613 33.5698 69.2305 35.0747C69.2305 36.4371 70.1838 37.3898 71.5498 37.3898H71.5487Z" fill="white"/>
<path d="M66.5589 51.9903H70.5952C70.7667 51.9903 70.913 51.8694 70.945 51.7017L73.4564 38.5179C73.4976 38.2988 73.3296 38.0957 73.1067 38.0957H70.9165C69.675 38.0957 68.6085 38.9765 68.3764 40.1939L66.2091 51.5682C66.168 51.7872 66.336 51.9903 66.5589 51.9903Z" fill="white"/>
<path d="M87.8473 38.7439C86.3989 38.1198 84.7186 37.8037 82.8519 37.8037C76.8242 37.8037 73.6715 42.3333 73.6715 46.8128C73.7024 49.7507 75.6514 51.8832 78.3045 51.8832C79.1207 51.8832 79.8455 51.7269 80.5039 51.4028C80.808 51.2522 81.1292 51.5717 80.9817 51.8775C80.4102 53.0584 79.4477 53.5992 77.9856 53.5992C76.8848 53.5992 75.4022 53.2946 74.8146 52.9466L74.7037 52.8804C74.5048 52.7629 74.2476 52.8633 74.1813 53.0835L73.244 56.204C73.196 56.3615 73.2646 56.5315 73.4074 56.6136L73.4772 56.6536C74.426 57.1989 76.1338 57.5378 77.9342 57.5378C80.1187 57.5378 81.9557 56.9993 83.2462 55.9781C85.0844 54.5165 85.7634 51.9859 86.1509 49.9424L88.133 39.1649C88.1628 39.0017 88.0759 38.8397 87.9239 38.7747L87.8496 38.7427L87.8473 38.7439ZM79.9266 48.0245C78.7549 48.0245 78.6281 46.766 78.6281 46.224C78.6281 44.0539 80.0672 41.6362 82.134 41.6362C82.2997 41.6362 82.4655 41.6476 82.6198 41.667C82.8233 41.6921 82.9616 41.8849 82.9239 42.0857L82.4015 44.8149C82.0197 46.9211 80.8674 48.0233 79.9255 48.0233L79.9266 48.0245Z" fill="white"/>
<path d="M98.7297 37.8033C97.4323 37.8033 96.2572 38.2049 95.2215 39.0001L96.4355 32.6507C96.4778 32.4316 96.3086 32.2285 96.0857 32.2285H93.8978C92.6552 32.2285 91.5875 33.1116 91.3578 34.3302L88.0988 51.5678C88.0576 51.7869 88.2256 51.9888 88.4485 51.9888H92.4849C92.6564 51.9888 92.8027 51.8668 92.8347 51.699L93.9664 45.6725C94.4556 43.127 95.7165 41.7955 96.7087 41.7955C97.1396 41.7955 97.5809 41.9153 97.5809 42.7995C97.5809 43.2559 97.5214 43.7693 97.4026 44.3353L96.0503 51.569C96.0091 51.788 96.1771 51.99 96.4001 51.99H100.435C100.607 51.99 100.753 51.869 100.785 51.7013L102.212 44.1812C102.357 43.37 102.459 42.3762 102.459 41.7647C102.459 39.3219 101.03 37.8044 98.7297 37.8044V37.8033Z" fill="white"/>
<path d="M110.036 41.9014H112.511C112.681 41.9014 112.829 41.7805 112.861 41.6139L113.459 38.5185C113.501 38.2994 113.333 38.0963 113.109 38.0963H110.772L111.39 34.8491C111.438 34.597 111.21 34.379 110.96 34.4372L108.245 35.0636C107.25 35.293 106.484 36.0859 106.29 37.0854L106.094 38.0963H104.71C104.539 38.0963 104.391 38.2184 104.361 38.3873L103.791 41.4827C103.751 41.7006 103.919 41.9026 104.141 41.9026H105.356L104.451 46.5383C104.259 47.5515 104.177 48.2999 104.177 49.0393C104.177 51.0405 105.645 52.283 108.012 52.283C108.805 52.283 109.864 52.1826 110.439 51.9601L110.493 51.9385C110.612 51.8928 110.697 51.7856 110.716 51.6601L111.198 48.4665C111.233 48.2292 111.028 48.0261 110.792 48.0626L110.656 48.0831C110.345 48.1311 109.997 48.1311 109.661 48.1311C109.182 48.1311 109.028 47.977 109.028 47.499C109.028 47.1567 109.102 46.5896 109.233 45.9416L110.037 41.9026L110.036 41.9014Z" fill="white"/>
</g>
<defs>
<clipPath id="clip0_829_23616">
<rect width="125.333" height="64" fill="white"/>
</clipPath>
</defs>
</svg>
