<svg width="98" height="45" viewBox="0 0 98 45" fill="none" xmlns="http://www.w3.org/2000/svg">
<g clip-path="url(#clip0_642_17265)">
<path d="M44.6316 23.2173C44.702 23.2128 44.7709 23.2098 44.8068 23.1499C49.2873 15.5591 50.1769 8.04907 46.3672 3.61946C44.8143 1.81197 42.6354 0.702319 40.0477 0.244083C39.3918 0.127277 38.712 0.052402 38.0066 0.0209544C31.0777 -0.306999 21.9339 3.33942 13.8564 10.2833C3.80365 18.9254 -1.44211 29.9695 0.345914 37.3522C-0.11981 33.7942 1.31031 29.3226 4.27237 24.9349C5.50032 23.1155 6.99034 21.311 8.71846 19.5918C9.39383 18.9195 10.1066 18.2591 10.8539 17.6166C20.1369 9.63343 31.2664 7.35273 35.7095 12.5206C38.2343 15.4572 38.0591 20.1654 35.7334 25.1491L38.2163 25.8469C39.6973 26.2632 40.0058 24.8256 40.2379 24.0619C40.4925 23.2293 41.37 22.3592 42.6504 22.6153C42.8616 22.6572 43.9982 23.2532 44.6301 23.2173H44.6316ZM34.9877 13.8789C32.7519 11.3196 28.8554 10.4481 24.0095 11.4259C19.21 12.3963 14.0406 15.0679 9.45523 18.9524C9.20515 19.1635 8.95956 19.3777 8.71696 19.5933C6.98884 21.3125 5.49883 23.117 4.27087 24.9364C5.82678 22.9328 7.65823 21.0354 9.73227 19.2789C19.0512 11.384 30.2361 9.08834 34.6642 14.1604C36.012 15.7043 36.6244 17.8457 36.4358 20.3511C36.3234 21.8426 35.9386 23.421 35.3126 25.0338C35.2872 25.0997 35.3381 25.17 35.41 25.164C35.5148 25.1566 35.6196 25.1521 35.7244 25.1491C36.3594 23.5093 36.7487 21.9025 36.8626 20.3825C37.0602 17.7604 36.4118 15.5111 34.9862 13.8774L34.9877 13.8789ZM34.6268 37.8779H34.2195C34.1341 37.8779 34.0517 37.8973 33.9784 37.9408C31.8025 39.2166 29.369 40.3622 26.7484 41.3371C24.9155 42.0185 22.9972 42.6115 21.1088 43.0877C24.0993 41.966 27.1887 40.3622 30.2181 38.3076C30.3888 38.1923 30.3065 37.9258 30.1013 37.9258H25.185C25.0068 37.9258 24.8331 37.9842 24.6893 38.0905C17.395 43.498 9.42079 45.4777 4.59284 43.2479C7.62678 45.1123 11.8632 45.4597 16.5908 44.4339C19.8389 43.9532 23.5123 42.9948 26.8952 41.7369C29.7299 40.6827 32.3521 39.4278 34.6672 38.0261C34.7361 37.9842 34.7061 37.8794 34.6253 37.8794L34.6268 37.8779Z" fill="url(#paint0_linear_642_17265)"/>
<path d="M22.491 23.7789C21.7393 23.7789 21.0639 24.2401 20.7914 24.9409L18.9644 29.6251C18.7233 30.293 18.4807 30.9819 18.2396 31.6842C18.2561 31.0642 18.2681 30.4278 18.2771 29.7554L18.3145 24.0319C18.3145 23.8927 18.2022 23.7789 18.0629 23.7789H16.0413C15.2955 23.7789 14.6247 24.2326 14.3476 24.9245L12.4518 29.6566C12.1298 30.5102 11.8513 31.2574 11.5997 31.9448C11.6117 31.2125 11.6222 30.4488 11.6311 29.7329L11.6117 24.029C11.6117 23.8912 11.4994 23.7789 11.3601 23.7789H10.1276C9.09287 23.7789 8.26475 24.6399 8.30369 25.6747L8.73497 36.8386C8.73946 36.9734 8.85177 37.0797 8.98655 37.0797H12.1073C12.2092 37.0797 12.299 37.0198 12.3395 36.9255L14.5183 31.7531C14.8538 30.9339 15.1338 30.1702 15.3899 29.4364C15.3704 30.1388 15.3614 30.8336 15.3614 31.5614L15.4573 36.8326C15.4603 36.9689 15.5711 37.0797 15.7088 37.0797H18.7727C18.8731 37.0797 18.9629 37.0213 19.0034 36.93L24.643 24.1323C24.7163 23.9661 24.595 23.7804 24.4123 23.7804H22.494L22.491 23.7789Z" fill="#414042"/>
<path d="M27.1528 26.7529C28.264 26.7529 29.0711 25.9772 29.0711 24.9095C29.0711 23.9346 28.3823 23.2532 27.3969 23.2532C26.3457 23.2532 25.537 24.0514 25.5161 25.1161C25.5161 26.0805 26.1899 26.7529 27.1528 26.7529Z" fill="#414042"/>
<path d="M23.6307 37.0797H26.4804C26.6017 37.0797 26.705 36.9943 26.7275 36.876L28.5006 27.5526C28.5305 27.3983 28.4107 27.2546 28.2535 27.2546H26.7065C25.8305 27.2546 25.0773 27.8775 24.914 28.7386L23.3836 36.7832C23.3536 36.9374 23.4734 37.0812 23.6307 37.0812V37.0797Z" fill="#414042"/>
<path d="M42.2701 26.7529C43.3813 26.7529 44.1884 25.9772 44.1884 24.9095C44.1884 23.9346 43.4996 23.2532 42.5142 23.2532C41.463 23.2532 40.6543 24.0514 40.6334 25.1161C40.6334 26.0805 41.3072 26.7529 42.2701 26.7529Z" fill="#414042"/>
<path d="M38.748 37.0797H41.5977C41.719 37.0797 41.8224 36.9943 41.8448 36.876L43.6179 27.5526C43.6478 27.3983 43.528 27.2546 43.3708 27.2546H41.8239C40.9478 27.2546 40.1946 27.8775 40.0313 28.7386L38.5009 36.7832C38.4709 36.9374 38.5907 37.0812 38.748 37.0812V37.0797Z" fill="#414042"/>
<path d="M54.4433 26.7529C55.5544 26.7529 56.3616 25.9772 56.3616 24.9095C56.3616 23.9346 55.6727 23.2532 54.6874 23.2532C53.6361 23.2532 52.8275 24.0514 52.8065 25.1161C52.8065 26.0805 53.4804 26.7529 54.4433 26.7529Z" fill="#414042"/>
<path d="M50.9211 37.0797H53.7709C53.8922 37.0797 53.9955 36.9943 54.018 36.876L55.791 27.5526C55.821 27.3983 55.7012 27.2546 55.5439 27.2546H53.997C53.121 27.2546 52.3677 27.8775 52.2045 28.7386L50.674 36.7832C50.6441 36.9374 50.7639 37.0812 50.9211 37.0812V37.0797Z" fill="#414042"/>
<path d="M76.834 26.7529C77.9451 26.7529 78.7523 25.9772 78.7523 24.9095C78.7523 23.9346 78.0634 23.2532 77.0781 23.2532C76.0268 23.2532 75.2182 24.0514 75.1972 25.1161C75.1972 26.0805 75.8711 26.7529 76.834 26.7529Z" fill="#414042"/>
<path d="M73.3118 37.0797H76.1616C76.2829 37.0797 76.3862 36.9943 76.4087 36.876L78.1817 27.5526C78.2117 27.3983 78.0919 27.2546 77.9346 27.2546H76.3877C75.5117 27.2546 74.7584 27.8775 74.5952 28.7386L73.0647 36.7832C73.0348 36.9374 73.1546 37.0812 73.3118 37.0812V37.0797Z" fill="#414042"/>
<path d="M29.8243 28.7461C29.9636 27.8865 30.7049 27.2546 31.5749 27.2531H32.8298C32.9811 27.2516 33.0979 27.3834 33.0799 27.5331L33.0035 28.1471C33.7882 27.4223 34.7481 27.0449 35.8278 27.0449C37.499 27.0449 38.4979 28.0992 38.4979 29.8647C38.4979 30.308 38.4185 31.0268 38.3436 31.476L37.3178 36.873C37.2954 36.9913 37.1921 37.0767 37.0708 37.0767H34.2225C34.0653 37.0767 33.947 36.9329 33.9754 36.7787L34.9488 31.6063C35.0042 31.2888 35.0371 30.9339 35.0371 30.6329C35.0371 29.9261 34.7391 29.8662 34.4591 29.8662C33.7598 29.8662 32.8313 30.8725 32.4854 32.7384L31.7037 36.8715C31.6812 36.9898 31.5779 37.0767 31.4566 37.0767H28.6069C28.4496 37.0767 28.3313 36.9329 28.3598 36.7787L29.5398 30.4982L29.8243 28.7446V28.7461Z" fill="#414042"/>
<path d="M48.7677 29.7374H50.5138C50.6336 29.7374 50.7384 29.6521 50.7609 29.5338L51.1832 27.3444C51.2132 27.1887 51.0948 27.0449 50.9361 27.0449H49.2874L49.7231 24.7477C49.7576 24.5695 49.5958 24.4153 49.4191 24.4557L47.5023 24.899C46.8 25.0607 46.2594 25.6223 46.1216 26.3291L45.9824 27.0449H45.006C44.8847 27.0449 44.7814 27.1318 44.7589 27.2516L44.3576 29.4409C44.3291 29.5952 44.4474 29.7374 44.6047 29.7374H45.4627L44.8233 33.0155C44.6885 33.7328 44.6301 34.2614 44.6301 34.784C44.6301 36.1992 45.6679 37.0782 47.3376 37.0782C47.8977 37.0782 48.6449 37.0078 49.0508 36.8491L49.0897 36.8341C49.1735 36.8011 49.2334 36.7263 49.2469 36.6379L49.5869 34.3797C49.6123 34.212 49.4671 34.0682 49.3008 34.0937L49.205 34.1086C48.9849 34.1431 48.7408 34.1431 48.5027 34.1431C48.1642 34.1431 48.0549 34.0338 48.0549 33.6953C48.0549 33.4527 48.1073 33.0514 48.1987 32.5947L48.7662 29.7374H48.7677Z" fill="#414042"/>
<path d="M71.2378 29.7374H72.9839C73.1037 29.7374 73.2085 29.6521 73.231 29.5338L73.6533 27.3444C73.6832 27.1887 73.5649 27.0449 73.4062 27.0449H71.7574L72.1932 24.7477C72.2277 24.5695 72.0659 24.4153 71.8892 24.4557L69.9724 24.899C69.2701 25.0607 68.7295 25.6223 68.5917 26.3291L68.4525 27.0449H67.4761C67.3548 27.0449 67.2515 27.1318 67.229 27.2516L66.8277 29.4409C66.7992 29.5952 66.9175 29.7374 67.0748 29.7374H67.9328L67.2934 33.0155C67.1586 33.7328 67.1002 34.2614 67.1002 34.784C67.1002 36.1992 68.138 37.0782 69.8077 37.0782C70.3678 37.0782 71.115 37.0078 71.5208 36.8491L71.5598 36.8341C71.6436 36.8011 71.7035 36.7263 71.717 36.6379L72.0569 34.3797C72.0824 34.212 71.9371 34.0682 71.7709 34.0937L71.6751 34.1086C71.455 34.1431 71.2109 34.1431 70.9728 34.1431C70.6343 34.1431 70.525 34.0338 70.525 33.6953C70.525 33.4527 70.5774 33.0514 70.6688 32.5947L71.2363 29.7374H71.2378Z" fill="#414042"/>
<path d="M61.9443 36.8745C61.7721 36.8745 61.6358 36.7293 61.6448 36.5586C61.6703 36.1168 61.6927 35.6735 61.7092 35.2318H61.6538C60.8586 36.6095 59.7055 37.0797 58.7292 37.0797C57.028 37.0797 55.8929 35.7439 55.8929 33.7283C55.8929 30.5685 57.8037 26.97 62.6661 26.97C63.8866 26.97 65.1699 27.2141 66.001 27.4852L64.9603 32.6186C64.7716 33.5935 64.5859 35.3546 64.5754 36.5795C64.5754 36.7442 64.4406 36.876 64.2759 36.876H61.9413L61.9443 36.8745ZM62.3531 29.4739C62.145 29.4349 61.9203 29.4155 61.7631 29.4155C60.2341 29.4155 59.2593 31.7366 59.2593 33.0933C59.2593 33.9469 59.5842 34.4486 60.1638 34.4486C60.7433 34.4486 61.5085 33.8046 61.9129 31.6407L62.3531 29.4739Z" fill="#414042"/>
<path d="M81.9659 27.3774C82.1262 27.3774 82.2579 27.5031 82.2654 27.6634L82.4167 31.1466C82.4586 32.4194 82.532 33.0903 82.5664 33.9364H82.6293C82.8974 33.1218 83.1834 32.403 83.6761 31.1645L85.1107 27.566C85.1556 27.4522 85.2664 27.3774 85.3892 27.3774H88.2749C88.501 27.3774 88.6463 27.6184 88.5385 27.8176L83.6746 36.9194C83.6222 37.0168 83.5203 37.0782 83.411 37.0782H80.5149C80.3666 37.0782 80.2393 36.9689 80.2184 36.8206L79.0578 28.7446C78.9545 28.0228 79.5145 27.3759 80.2438 27.3759H81.9659V27.3774Z" fill="#414042"/>
<path d="M95.9526 36.1587C95.9616 36.2845 95.8927 36.4043 95.7759 36.4552C94.6063 36.9599 93.3125 37.0797 92.3316 37.0797C89.5433 37.0797 88.1042 35.5717 88.1042 32.9915C88.1042 30.0459 90.1213 26.9865 93.6944 26.9865C95.6965 26.9865 97.1251 28.1606 97.1326 30.0249C97.1326 32.4254 95.1065 33.4408 91.6353 33.4123C91.3957 33.4108 91.2489 33.6774 91.3822 33.8765C91.4271 33.9439 91.4796 34.0083 91.5425 34.0667C91.8839 34.3737 92.438 34.5639 93.1747 34.5639C93.9879 34.5639 94.7217 34.4291 95.4135 34.1611C95.6022 34.0877 95.8103 34.2135 95.8238 34.4171L95.9511 36.1602L95.9526 36.1587ZM93.305 29.3945C92.399 29.3945 91.8435 30.0025 91.6113 30.6239C91.5365 30.8246 91.6832 31.0358 91.8974 31.0328C93.4787 31.0133 94.1241 30.6794 94.1241 30.0744C94.1241 29.6895 93.8336 29.3945 93.3065 29.3945H93.305Z" fill="#414042"/>
</g>
<defs>
<linearGradient id="paint0_linear_642_17265" x1="-9.65019e-06" y1="22.5" x2="48.7617" y2="22.5" gradientUnits="userSpaceOnUse">
<stop stop-color="#2B2B69"/>
<stop offset="1" stop-color="#009782"/>
</linearGradient>
<clipPath id="clip0_642_17265">
<rect width="97.1341" height="45" fill="white"/>
</clipPath>
</defs>
</svg>
